<mxfile host="Electron" modified="2024-07-31T20:54:00.479Z" agent="Mozilla/5.0 (Windows NT 10.0; Win64; x64) AppleWebKit/537.36 (KHTML, like Gecko) draw.io/22.1.16 Chrome/120.0.6099.109 Electron/28.1.0 Safari/537.36" etag="WqEfUtdoe11gNSnKVC0s" version="22.1.16" type="device">
  <diagram name="Page-1" id="4J-mOBrImROQh0QMu6N8">
    <mxGraphModel dx="1434" dy="956" grid="1" gridSize="10" guides="1" tooltips="1" connect="1" arrows="1" fold="1" page="1" pageScale="1" pageWidth="800" pageHeight="270" math="0" shadow="0">
      <root>
        <mxCell id="0" />
        <mxCell id="1" parent="0" />
        <mxCell id="7upIJ7KYZOERCpWqS2DW-1" value="" style="shape=image;imageAspect=0;aspect=fixed;verticalLabelPosition=bottom;verticalAlign=top;image=data:image/svg+xml,PHN2ZyB4bWxucz0iaHR0cDovL3d3dy53My5vcmcvMjAwMC9zdmciIHZpZXdCb3g9IjAgMCA5NDkuNDYgNTY2LjIiPjxkZWZzPjxzdHlsZT4uY2xzLTF7ZmlsbDojMmQyZDJkO30uY2xzLTJ7ZmlsbDojMjMxZjIwO30uY2xzLTN7ZmlsbDojYzc4YTVlO30uY2xzLTR7ZmlsbDojZjhkMDMzO30uY2xzLTV7ZmlsbDojNzkzNzdlO30uY2xzLTZ7ZmlsbDojZTk4OTQwO30uY2xzLTd7ZmlsbDojY2QzMTdiO308L3N0eWxlPjwvZGVmcz48dGl0bGU+QXNzZXQgMTwvdGl0bGU+PGcgZGF0YS1uYW1lPSJMYXllciAyIiBpZD0iTGF5ZXJfMiI+PGcgZGF0YS1uYW1lPSJMYXllciAxIiBpZD0iTGF5ZXJfMS0yIj48cGF0aCBkPSJNMTkxLjUyLDU2Ni4yYTkuNTcsOS41NywwLDAsMSwwLTEuNWM1LjgtLjc2LDExLjUzLTMuMTgsMTcuNDUtMSwuNzIuMjcsMSwxLjY1LDEuNTQsMi41MloiIGNsYXNzPSJjbHMtMSIvPjxwYXRoIGQ9Ik0xNjIuNTIsNTY2LjJjLS4xMi0uMjgtLjI0LS41Ni0uMzctLjg0LDQuNjQtLjMsOS4yOC0uNjIsMTMuOTItLjgzLjEzLDAsLjMsMS4wOS40NSwxLjY3WiIgY2xhc3M9ImNscy0xIi8+PHBhdGggZD0iTTMwNC4zOCw1NDAuNGMtMTEtNi44NC0yMy40NC05LTM2LjEyLTEwLjJsMC0xLjA4YzIuNDYsMCw0LjkxLDAsNy4zNywwLDIuNjYsMCw1LjQ2LS4zMyw4LC4zNyw2LjM4LDEuNzYsMTIuNjMsNCwxOC44OSw2LjEzLjgxLjI3LDEuMzUsMS4zMiwyLDJDMzA0LjQ3LDUzOC41NiwzMDQuNDIsNTM5LjQ4LDMwNC4zOCw1NDAuNFoiIGNsYXNzPSJjbHMtMiIvPjxwYXRoIGQ9Ik0yMzAuNjksNTQ4LjE1bDEuNzEsMS43N0wyMTUuMzMsNTU2bC0uNTYtMS41NkMyMTkuODEsNTUxLjcsMjI0LjgsNTQ4Ljg5LDIzMC42OSw1NDguMTVaIiBjbGFzcz0iY2xzLTIiLz48cGF0aCBkPSJNMjU2LjUzLDU1Ny4wOWMtMS42My44LTMuMTksMS45Mi00LjkxLDIuMzVhNzkuNDksNzkuNDksMCwwLDEtMTMuNDksMi4yNWM1LjkxLTIuNTUsMTEuNjUtNS43MywxOC40NS00LjUzWiIgY2xhc3M9ImNscy0yIi8+PHBhdGggZD0iTTMwNy41Nyw1NDIuODZjLS4zLS43Mi0uNTktMS40NS0uODktMi4xN2wyLjM0LjlaIiBjbGFzcz0iY2xzLTEiLz48cGF0aCBkPSJNMzA0LjM4LDU0MC40YzAtLjkyLjA5LTEuODQuMTQtMi43NWwxLjcsMi4wNloiIGNsYXNzPSJjbHMtMSIvPjxwb2x5Z29uIHBvaW50cz0iMjM5LjE4IDU0NS42IDIzOS4wMSA1NDUuOSAyMzguNzggNTQ1LjY2IDIzOC45NCA1NDUuMzggMjM5LjE4IDU0NS42IiBjbGFzcz0iY2xzLTMiLz48cGF0aCBkPSJNODAwLjEsMzcyLjE3YTI3LjMxLDI3LjMxLDAsMCwxLDMuMTksMi44MmMzLjg0LDQuNjYsNyw1LjcxLDExLjg0LDIuODVhOC4zMSw4LjMxLDAsMCwxLDguNDctLjUzYzQuMTgsMiw4LjI1LDQuMjUsMTIuMzYsNi40bC0uNDEsMS4zOWMtMy44OCwxLjE2LTcuNzEsMi41MS0xMS42NCwzLjQ0LTI3LjI4LDYuNDQtNTQuODEsMTAuOTQtODMsOS4yLTI3LjYtMS43MS01NC40NC03LTc5LjMzLTE5LjU1LTI0LjExLTEyLjE4LTQ1LjIxLTI4LTU4Ljc0LTUyLjEyLTMuNDMtNi4xLTUuNDUtMTMtOC4yNi0xOS44OCw2LjU1LS4xNiw4LjEzLjc4LDEwLjA2LDUuMjksMy41NSw4LjMzLDEyLjMsMTEuODcsMjIuNTgsOC42OC4zNCw1LjYsMi40OCwxMC4zMSw3LjYzLDEzLDYuMDYsMy4xMiw5LjQxLTEuNzgsMTMuOTQtNS40NS4yMSwzLjI4LjQsNS44NC41Miw4LjQxLjMsNi4xOSw0LjExLDEwLjEyLDksMTNzMTAsMS4wOCwxMi43OC0zLjgzYTQ4LjIzLDQ4LjIzLDAsMCwwLDQuMTctOC40N2MxLjI5LTMuOTMsMy43Ny00LjExLDctMy4xMyw2LjUxLDIsMTMsNCwxOS41NCw1LjkxLDEzLjIsNCwyNi40MSw3LjgyLDM5LjU5LDExLjgzLDkuNjMsMi45MywxOS4yMSw2LDI4LjgyLDksMi44MS44OCwzLjY5LDIuMTgsMi4xMSw1LjE1YTMyLjQ5LDMyLjQ5LDAsMCwwLTMuMzIsOS4yOGMtLjkyLDUuMTUsMi41OSw5LDcuODMsOS4yNSw2LjYxLjI5LDExLjUxLTMuNzMsMTYuNzItNi44NUE2OC4yOSw2OC4yOSwwLDAsMCw4MDAuMSwzNzIuMTdaIiBjbGFzcz0iY2xzLTQiLz48cGF0aCBkPSJNNDE4LDU1N2MxLjc4LTMuOTQsMi4wNi03LjQ3LDYuMzktOGEzLjE0LDMuMTQsMCwwLDAsMi4wOC0xLjgxYzIuNDMtNyw1LjY0LTEzLjg5LDYuNzMtMjEuMS43My00Ljc2LTEuNDQtMTAtMi43LTE1YTQ0LjYxLDQ0LjYxLDAsMCwwLTMuMzItNy43MWMtMS42Mi0zLjQzLjE0LTUuMzIsMi45Mi02LjgxYTkuNjUsOS42NSwwLDAsMSwxLS4yNmM5LjEyLTMuNDEsOS40LTQsNi4zNy0xMy40NGE1MCw1MCwwLDAsMS0xLjgtNi42NmMtMS4yNC03LjA5LTEuMi03LjE3LDUuNDctOWEyNS44MywyNS44MywwLDAsMSw2LjM3LS44OWM5LS4xNSwxOCwwLDI3LS4yNyw3LjQ2LS4yMywxNC45MS0xLDIyLjM3LTEuMzcsNS40My0uMjcsMTAuODgtLjQsMTYuMzItLjM3LDUuODksMCw3Ljg2LDIuNzIsNy4xNSw4LjU2YTE3NS4zMiwxNzUuMzIsMCwwLDAtMS42OCwxOS43OGMtLjA3LDguMTEsMS42Niw5LjQ3LDkuNyw5LjYsMS44MSwwLDMuNjIsMCw2LjI0LDAtLjQ0LDMuOC0uNTUsNy4yLTEuMjYsMTAuNDgtMy4xLDE0LjI1LDIsMjYuMjksOS42OSwzNy43NSwxLjc5LDIuNjgsMy4yMyw1LjYsNS4wNyw4LjgxLTguNDcsMi43My0xNi4zNiwxLjU0LTI0LjI0LDEuNC0xMi4xLS4yMS0yNC4yMSwwLTM2LjMyLjEtOC44MiwwLTE3LjY0LjItMjYuNDYuMDgtNS44MS0uMDktMTEuNjItLjM4LTE3LjQtLjkzQzQzNS4yOSw1NTkuMiw0MjcsNTU4LjA4LDQxOCw1NTdabTU2LjkzLTEwLjgzYTQ5LjQ5LDQ5LjQ5LDAsMCwwLDI0LjczLTYuODZjNy40NC00LjMyLDExLjg1LTE3LjQxLDguMzEtMjUuNjItNC4xOC05LjcyLTEwLjQxLTE2LjU1LTIwLjI0LTIwLjEyYTMwLjQ0LDMwLjQ0LDAsMCwwLTE3LjYzLS42OWMtNi4xNywxLjQ0LTExLjY3LDQuMDgtMTUuODUsOS01LjEyLDYtOC45MSwxMi44Mi05LjQ0LDIwLjc2LS4zNCw1LC4xOCwxMC40MSw0LjY5LDE0QzQ1Ny40Niw1NDIuOSw0NjYuMTIsNTQ3LjM2LDQ3NC45Myw1NDYuMloiIGNsYXNzPSJjbHMtNSIvPjxwYXRoIGQ9Ik04MDEuODksMTM3LjlsLTUuNTQsNC45LjgxLDEuMjFjMi0xLjE4LDQuMDctMi4yMiw1LjkxLTMuNTgsMy44MS0yLjgyLDcuNjUtNC40NSwxMi4yNC0xLjM2bC0yMS4yMyw3Ljg0Yy4yNy0uNDguNzMtMS4zLjgzLTEuNDlhNTAuNTQsNTAuNTQsMCwwLDEtNS41Mi01LjI0Yy0xLjYzLTIuMDYtMS4wNi0zLjg0LDEuODQtNCwzLjQxLS4xNCw2LjgzLDAsMTAuMjQsMFoiIGNsYXNzPSJjbHMtNCIvPjxwYXRoIGQ9Ik03MTAuNjYsMjY0LjZjLjUxLDMuODUsMS4yOSw3LjY4LDEuNDksMTEuNTUuNTMsMTAuNTYuODIsMjEuMTIsMS4yLDMxLjY4LS40NS00Ljg4LTEuMDUtOS43NS0xLjMzLTE0LjY0QzcxMS40NywyODMuNjcsNzExLjEsMjc0LjEzLDcxMC42NiwyNjQuNloiIGNsYXNzPSJjbHMtMyIvPjxwYXRoIGQ9Ik0zMDksNS45MmwtMjQuNDMtLjUzYTUxLjY3LDUxLjY3LDAsMCwxLDYuNTktMWM0LjQ1LS4xLDguOTEsMCwxMy4zNS4yQzMwNi4wNyw0LjY4LDMwNy41NCw1LjQ2LDMwOSw1LjkyWiIgY2xhc3M9ImNscy0zIi8+PHBhdGggZD0iTTQyNSw1MzBsLTYuODkuMjQtLjMyLTEuOCw3LTEuMjJaIiBjbGFzcz0iY2xzLTIiLz48cGF0aCBkPSJNMzIyLjEzLDYuODRjLTMuMjQsMC02LjY4LDEuODEtOS42Mi0xWiIgY2xhc3M9ImNscy0zIi8+PHBhdGggZD0iTTcyNS4xMSwxNDMuMThsLS43LTEuNTRjLTYuMTMsMS45MS0xMi4zMiwzLjY1LTE4LjMzLDUuODktMS4xNy40NC0yLjI4LDIuODItMi4yNyw0LjMsMCw1LC41NiwxMCwuOSwxNS4wOEE0Ny4zMyw0Ny4zMywwLDAsMSw3MjUuMTEsMTQzLjE4WiIgY2xhc3M9ImNscy00Ii8+PHBhdGggZD0iTTc0MC41MywyMDYuMTZoMHMwLDAsMCwwbDAsMFoiIGNsYXNzPSJjbHMtNCIvPjxwYXRoIGQ9Ik03MDYuNjksMTgyLjA1Yy0xLjczLDcuNDUtLjYsMTQuNy42NSwyMS45NGwuMTgsMi40NmMtLjA2LDEuNDktLjIzLDMtLjE2LDQuNDdxMS4wOCwyMy4xNSwyLjI2LDQ2LjNhMTIuNzQsMTIuNzQsMCwwLDAsLjc4LDIuNzVsLjI2LDQuNjNjLjUxLDMuODUsMS4yOSw3LjY4LDEuNDksMTEuNTUuNTMsMTAuNTYuODIsMjEuMTIsMS4yLDMxLjY4LjM1LDMuNTQuNjksNy4wOCwxLjEzLDExLjUzYTM1LjUxLDM1LjUxLDAsMCwwLDQuNTQtMy4xN2MxLjY1LTEuNjEsMi45My0zLjYxLDQuNTgtNS4yMyw4LjgzLTguNjEsMTcuNTQtMTcuMzQsMjYuNjMtMjUuNjYsMTEuNzUtMTAuNzUsMjMuNDUtMjEuNTksMzUuODItMzEuNTgsMjAuMTEtMTYuMjYsNDAuMjctMzIuNDIsNTguNTQtNTAuOGwyMS0xOS41YTMwLjA3LDMwLjA3LDAsMCwxLDIuNjgtMi44NGM2LTQuOTMsMTItOS44NSwxOC4xNC0xNC42NmExMS44NSwxMS44NSwwLDAsMSwzLjA5LTEuNDJjLTQuNTktNi4xNi04LjQ1LTEwLjM0LTE1LjE0LTEwLjE4LTEuNjMsMC0zLjI4LTEuNDgtNS0yLjItMS4yMS0uNTEtMi40OS0uODgtMy43NC0xLjMxbC05LjQ2LTMuNjItLjQ4LDEuMDcsOC40OCw3YzMuOTIsNyw0LjI3LDE0LjEyLjYxLDIxLjM2YTguNjYsOC42NiwwLDAsMC0uNDgsMS45M2wwLC4zNi0uMzIuMTlhMS4wNywxLjA3LDAsMCwwLS4zOC43MWMtMi4yNywyLjc1LTQuNDEsNS42Mi02LjgzLDguMjQtNS42LDYuMDUtMTMsOS41LTIwLjEyLDEzLjIzbC0yLjQzLjcxLS4yLjIxLS4yOC0uMWMtNi43NS42OC0xMy41OSwyLjM4LTIwLjIzLDEuODEtMTEuMzItMS0yMS44Mi00LjY3LTI4LjM4LTE1LjEyLTEuNTEtMi40LTMuMDktMi40Ny01LjI5LS43My02LjY5LDUuMjctMTQuNDgsOC0yMi43Niw5LjZsLTIuMjkuMzEtMi43Mi4zOGMtNC4yMi0uMS04LjQ0LS4yNS0xMi42NS0uMi0uNCwwLS43OSwxLjIzLTEuMTgsMS44OS43NSwyLjA1LDEuNDksNC4wOSwyLjI0LDYuMTMsMi4yNywxLjU2LDMuNDksNC4zLDcsNC41LDIuODUuMTUsMi42MywzLjg3LS4zOSw2LjUyLTIuNDctLjY5LTUuMzYtLjU3LTQuMDktNSwuNDctMS42My0xLjYxLTQtMi41NS02LTEuMzMtMS40Ny0yLjY5LTIuOTItNC00LjQycy0yLjM4LTQuMDktNC00LjYzQzcyMi44OSwxOTQsNzE0LjA3LDE4OS43OSw3MDYuNjksMTgyLjA1WiIgY2xhc3M9ImNscy00Ii8+PHBhdGggZD0iTTkzNywyMjMuOGMtNi41My0yMS40Ni0xOC44Ny0zOC42Mi0zNi4yMy01Mi4zOS02LjY3LTUuMjktNi45Mi01LjI0LTEzLjMyLjI5LTE1LjIxLDEzLjE2LTMwLjIsMjYuNTYtNDUuNDYsMzkuNjUtMTkuOCwxNy00MC4xNywzMy4zNC01OS41Nyw1MC43Ni0xOSwxNy4wOC0zNy4xNSwzNS4xMi01NS41OCw1Mi44My0zLjQ2LDMuMzMtNi4zMyw3LjI3LTkuODMsMTAuNTNhNy42OCw3LjY4LDAsMCwxLTUuNjUsMS44OWMtLjktLjE0LTEuNjUtMy4yMi0xLjkxLTUuMDUtLjM1LTIuNDUsMC01LS4yMS03LjQ4LTEuNTYtMjIuNTgtMy4yMS00NS4xNi00Ljc1LTY3Ljc1LTEuNy0yNS4wOC0zLjMtNTAuMTctNS03NS4yNi0uNDQtNi41Ni0xLTEzLjExLTEuNTktMjAuMjctMi43LDEtNC44OCwxLjY5LTcsMi42QzY2Ny4wOCwxNjQuNTMsNjQ2LjcyLDE4MCw2MjksMTk4LjY1Yy0xNy4xNywxOC0zMi41NywzNy40My0zNSw2My44My0xLDEwLjYtMS43NCwyMS4xMy0uNjcsMzEuOWw5LjYsMi44MmMzLjUyLTEzLDE5LjM0LTI5LjQ5LDI3Ljg5LTI5LjE3YTkuNjQsOS42NCwwLDAsMS0xLjM5LDIuNTNjLTMuNDUsMy4xMy02Ljg4LDYuMjktMTAuNTIsOS4yLTYuNzQsNS4zNy05LjM5LDEyLjc3LTEwLjMyLDIwLjg2LS42OCw1LjgzLDEuNTcsMTAuNzUsNi4yNiwxNC40Niw0LjUzLDMuNTgsNy45MSwyLjk1LDEwLjExLTIuMzNhMTIwLjQ3LDEyMC40NywwLDAsMCw0LjQ2LTEzLjJjLjg5LTMuMTUsMy4xOS00LDUuNjUtMy4zOS44Ni4yMywxLjMxLDMuMjIsMS4zNiw1LDAsMS40MS0xLjA2LDIuODItMS4yMSw0LjI4LS41OSw1LjU3LTEuMzEsMTEuMTYtMS4zNSwxNi43NCwwLDMsMS41Nyw2LDUuMDcsNi42M3M1LTIuMiw2LjQtNC42MWM0LjUyLTcuOCw4LjQ3LTE1Ljg0LDEwLjA5LTI0Ljg1Ljc4LTQuMzUsMy4xMy03LjA1LDUuMTctNiwzLjU0LDEuODIsMS4xLDQuNTkuNTgsNy0yLjE1LDkuOS00LjY2LDE5LjczLTYuMzMsMjkuN2EyMS40OCwyMS40OCwwLDAsMCwxLjQ3LDExLjE1YzIuMjUsNS40Niw4LDUuNzcsMTAuNjYuNjgsNC4xNS03LjgsNy40MS0xNS45MSw3LjY0LTI1YTExMy4yNiwxMTMuMjYsMCwwLDAtMy4xNS0zMC4yMWMtLjgzLTMuMzYtMS40Ny02Ljc4LTIuMzEtMTAuNjksNS42MSwxLjE3LDYuNDcsNS4xMyw3LjQ3LDguNzEsMy4wNiwxMSw0LjcxLDIyLjE1LDMuODMsMzMuNTYtLjI0LDMuMi43Niw0LjkzLDMuODgsNS44NCwxMC42NywzLjEyLDIxLjMxLDYuMzgsMzIsOS42LDIwLDYuMDcsNDAuMDgsMTIuMTIsNjAuMDksMTguMjlhNC42NCw0LjY0LDAsMCwwLDUuMy0xLjIsMTg2LDE4NiwwLDAsMSwxNC41My0xMi44NGM3LjExLTUuNDUsMTQuNTUtMTAuNDcsMjEuOTMtMTUuNTcsMi4xOC0xLjUsNC42Mi0yLjc3LDcuNzEsMS4yMy0xLjE0LjY3LTIuMzEsMS4yOC0zLjQsMi03LDQuNjctMTQuMTYsOS4yNC0yMS4xLDE0LjA4LTkuOCw2LjgzLTE4LjA2LDE1LjE4LTIzLjc5LDI1Ljc3LTIuNDcsNC41NS00LjI3LDkuMzItMi4xLDE0LjcxLDQuNjguMzksOC4yNC0xLjUzLDExLjQ4LTQuMjZhMTQ0LjM0LDE0NC4zNCwwLDAsMCwyOS4yOS0zNC40MmMxLjU3LTIuNTMsMy4yLTIuOSw2LjMyLTIuMTQtLjQyLDEuNjgtLjUsMy4zNC0xLjIyLDQuNjUtMi4zMiw0LjIyLTUuMTMsOC4xOS03LjI5LDEyLjQ5YTc2LjY2LDc2LjY2LDAsMCwwLTUuNDUsMTMuM2MtMSwzLjQzLDEuMzEsNS4wNSw0LjYyLDMuNTlhMTYsMTYsMCwwLDAsNS42OC0zLjg4YzUuMDYtNS45LDkuODgtMTIsMTQuNjktMTguMTMsMS4yMy0xLjU3LDItMy44Miw0LjU3LTIuNTMsMi45MSwxLjQ2LDEsMy4yNi4xOCw1LTIuMTksNC42NC00LjQzLDkuMjYtNi41LDE0LTEuNDQsMy4yNS0xLjcxLDYuNTUsMS4yOSw5LjE2czYsLjkyLDguODQtLjQzYTQxLDQxLDAsMCwwLDE4Ljc5LTE3Ljk1YzEuNzktMy4yOSwzLjgyLTYuNDQsNS43NC05LjY2bDEuNi4yNGMuMjUsMS4zMywxLDIuODMuNjUsNGEyNC40NywyNC40NywwLDAsMS0zLjU3LDcuNTJjLTMuNzYsNC43Ny04LDkuMTktMTIuMTYsMTMuOTQsMy4wNywyLjMxLDYuNjEsMy41LDEwLjQxLDEuNjQsOS41NC00LjY1LDE5LjI5LTksMjguMzUtMTQuNDYsMTMuOTEtOC40LDI0LjY4LTIwLjA3LDMyLjY3LTM0LjMyLDcuNjgtMTMuNjksMTEuODItMjguNSwxNC42NC00My43OUM5NDIuNzYsMjYzLjQ1LDk0MywyNDMuNjQsOTM3LDIyMy44WiIgY2xhc3M9ImNscy00Ii8+PHBhdGggZD0iTTI4MC4xNiwxNzEuODFsMy42OS0uMzNjMCwuNDksMCwxLDAsMS40NmwtMy43LS4zNkEuODQuODQsMCwwLDEsMjgwLjE2LDE3MS44MVoiIGNsYXNzPSJjbHMtMyIvPjxwYXRoIGQ9Ik00MjUuNzUsNTIwLjdjLS4wOC0xLS4xNS0xLjkyLS4yMy0yLjg4QzQyNS42LDUxOC43OCw0MjUuNjcsNTE5Ljc0LDQyNS43NSw1MjAuN1oiIGNsYXNzPSJjbHMtMyIvPjxwYXRoIGQ9Ik03NTcuMTMsMTk3LjY1bC0yLjI5LjMxWiIgY2xhc3M9ImNscy0zIi8+PHBhdGggZD0iTTQwOC45Myw1NDUuNjFoMFoiIGNsYXNzPSJjbHMtMyIvPjxwYXRoIGQ9Ik0zMzcuMTcsMjMzLjQxbC0uMy4xMWExLjQ5LDEuNDksMCwwLDEtLjA4LS40YzAtLjA1LjE4LS4wOC4yOC0uMTJaIiBjbGFzcz0iY2xzLTMiLz48cGF0aCBkPSJNMjU2LjU4LDU1Ny4xNmwuMS0uMDZoLS4xNVoiIGNsYXNzPSJjbHMtMiIvPjxwYXRoIGQ9Ik0zMzIuNjksMjI1LjMzaDB2MFoiIGNsYXNzPSJjbHMtMiIvPjxwYXRoIGQ9Ik05MTYuNTEsMzQ5LjM5YTExMC4wNSwxMTAuMDUsMCwwLDAsMjEuMTktMzMuNDVjOS4zNy0yMi4zNCwxNC4xMS00NS4yMSwxMC42LTY5LjU2LTIuNjUtMTguNDMtNi4yNC0zNi4zOC0xNy42LTUxLjgzLTEwLjU0LTE0LjMzLTIyLjU2LTI2Ljg3LTM5LjItMzQuMTZhMjMuNDQsMjMuNDQsMCwwLDEtNS42OC0zLDQ0LjExLDQ0LjExLDAsMCwwLTEzLjMyLTcuODZjLTQuNjMtMS42Ni05LjI0LTMuMzYtMTQtNC43Mi0xMC41LTMtMjEtNi0zMS42MS04Ljc0LTQuMTctMS4wOC04LjUyLTEuNDctMTMuNzgtMi4zNCwyLjMzLTIuMDYsMy44NS0zLjMxLDUuMjctNC42Nyw2LjM2LTYuMTMsMTIuNzItMTIuMjYsMTQuOTQtMjEuMy4yNi0xLjc5LjUxLTMuNTcuNzctNS4zNi0uMjItLjg1LS40My0xLjcxLS42NS0yLjU2LjEyLS41MS4yNC0xLC4zNy0xLjUxLjI3LTEuODIuNTQtMy42NS44Mi01LjQ3LS4zMy0uMzUtLjY1LS43MS0xLTEuMDZsLTQuMzgtMS4yMi0xLjUxLjEzLTIuNiwwTDgyMyw4OS41N2wtMy43NS0uNjYtOS42OS0yLjE3LS40MiwxLjcxLDkuMDksMi4zNiwyLjY3Ljc4Yy4yMi44NS40MywxLjcuNjQsMi41Ni0yLDMtLjY3LDQuNjQsMi4yNyw1LjY1LDIsMS42OSw2LjE5LS4xOCw2Ljc5LDRsLS41NCwyLjY1Yy0uMTQuNDctLjI4Ljk0LS40MywxLjQxLTMuODksMTAuNjMtMTIsMTcuNzUtMjAuNjEsMjQuMzYtMSwuNzktMi44Ljg2LTQuMjMuODYtNC42NSwwLTkuMzIsMC0xNC0uNDFhNi41Niw2LjU2LDAsMCwxLTQuMzgtMi40M2MtNi4xMi05LjQxLTE1LjQ3LTE0LjQyLTI1LjI3LTE4LjY5LTQuMzgtMS45LTktMy42MS0xNC0xLjU5LjQxLDUuODcsNC43MSw5LjEsOC4zLDUuODMsMi43NC0yLjUsNC43NS0xLjY5LDcuMDktLjU1YTY0LjMyLDY0LjMyLDAsMCwxLDkuMSw1LjExYzQuMjgsMyw4LjU1LDYuMTgsMTEsMTEuNjNhMTkuNzIsMTkuNzIsMCwwLDEtMy41NC44NmMtOS4yOS40MS0xOC42LjU3LTI3Ljg4LDEuMTQtMTguNzIsMS4xNC0zNyw0LjgtNTQuMywxMi0zMiwxMy4zOC02MC4xOSwzMi41NC04My41MSw1OC4zNy0xNy45MiwxOS44NS0yNy40NSw0My4zLTI3LjkzLDcwLjIyLS4xLDUuNDUsMCwxMC45MSwwLDE2LjYzYTE5LjgyLDE5LjgyLDAsMCwxLTMuODMtLjQyYy0xMy41NS00LjUzLTI3LTkuMzItNDAuNjUtMTMuNTYtNC0xLjI0LTQuODUtMi45My00LjMzLTYuNzYsMS43Mi0xMi43My00LjI2LTIxLjIyLTE1LjE1LTI3LjEyQTQ2LjU5LDQ2LjU5LDAsMCwwLDUwMCwyMzcuODdjLTE3LjI0LS40NC0zMS40Miw0LjkyLTQwLjA1LDIwLjgzLTEuNTEsMi43OC0zLjE4LDIuNzItNS43MSwxLjg3LTEyLjQzLTQuMTgtMjQuOTEtOC4yMi0zNy4zNi0xMi4zNS02LjQtMi4xMy0xMi43Ny00LjMzLTIwLjA2LTYuODEsMS44Mi0xLjU1LDIuODYtMi40OCw0LTMuMzcsMTcuMTMtMTMuNzgsMzMuOTEtMjcuOTUsNDcuMDYtNDUuOCwxMS0xNC45NCwxNy45NC0zMS40MywxNy45My01MC4zOCwwLTExLjE5LTIuOTEtMjEuNjUtNy4xMi0zMS45MS03LjA1LTE3LjE5LTE1LjU3LTMzLjM2LTI4LjE4LTQ3LjMxLTEzLjUyLTE1LTI5LjM0LTI3LTQ2LTM4QzM1OS44MSw4LjMyLDMzMi44OS0uNDEsMzAzLjEsMGMtMTcuNTQuMjYtMzUsMS4yNC01Mi4xLDUuMTUtMTksNC4zMy0zNi40MSwxMi41My01MywyMi41LTEzLjE2LDcuODgtMjUuNzEsMTYuNjgtMzYuNTYsMjcuNTUtMTEuODIsMTEuODYtMjMuMTUsMjQuMTktMzQuNzcsMzYuMjRhMTIuMjksMTIuMjksMCwwLDEtNC43OSwzLjNjLTQuNCwxLjM5LTksMi4yOC0xMy40NSwzLjQzLTE5LjUsNS0zOC41LDExLjM5LTU2LjM2LDIwLjhhOC4zNyw4LjM3LDAsMCwxLTcuNTkuMzVjLTctMi43Mi0xMy45NC01LjM5LTIxLTcuN2EyOC43OCwyOC43OCwwLDAsMC05LjI0LTEuMiw0LjUxLDQuNTEsMCwwLDAtMy4zNSwyLjc4Yy0uMTksMSwxLjI3LDMsMi40NiwzLjUyLDQuNTMsMiw5LjI0LDMuNjUsMTMuODcsNS40NCwzLjQzLDEuMzMsNi44NCwyLjY5LDEwLjg3LDQuMjgtMS43MSwxLjI0LTIuNjEsMi0zLjU3LDIuNTlhNDQuODgsNDQuODgsMCwwLDAtMTYuNzQsMTkuMjljLTIuNiw1Ljc4LTEuMjMsOC43MSw1LDguMTVhNzcsNzcsMCwwLDAsMTcuNzctNC4yOWM0LjIxLTEuNDYsOC00LjEzLDEyLjE1LTYuMzUsMSwzLjY4LTEuNDQsOC42Myw0LjE4LDkuMTYsMy42NS4zNCw3LjM5LS4yMywxMS4wOS0uNC40OSw5LjE4LjQ5LDkuMTgsNi44MiwxMi44NGExMi4xOSwxMi4xOSwwLDAsMS0uNjYsMi43NmMtNC42MSw5LjM1LTkuNDMsMTguNi0xMy45MSwyOC01LDEwLjQ5LTEwLDIxLTE0LjUxLDMxLjcyLTcsMTYuODktMTMuMTksMzQuMTMtMjAuNDMsNTAuOTJhMTk5Ljg0LDE5OS44NCwwLDAsMC0xNS43LDYwcS00LjA4LDQxLjUxLTcuOTUsODNRLjYyLDQzMy44NSwwLDQ0My44MmMtLjE5LDMuMTMsMS4zNSw1LjEsNC42OSw1LjE3czMuNDktMi4yNiwzLjcxLTQuNzVjLjU1LTYuMTksMS45My0xMi4wNiw1Ljc3LTE3LjI2YTE5MC43MywxOTAuNzMsMCwwLDEsNDUuNTUtNDQuMzJDODEsMzY4LDEwNC4yOCwzNTYuOCwxMjcuNjgsMzQ1LjkzYzE3LjQtOC4wOCwzNS4yNC0xNS40Miw1MS45NC0yNC43OCwyNi42NC0xNC45Miw0OS4wNy0zNC43Nyw2NC4xMi02MmEzNC4xMiwzNC4xMiwwLDAsMSwyLjc1LTMuNTZjMCwyLjQ1LjI3LDQsMCw1LjQzLTIuMzYsMTEtNC41MSwyMi03LjMzLDMyLjkyLTQuNTQsMTcuNTMtOS44NCwzNC44OC0xNC4yNyw1Mi40NC0zLjY5LDE0LjY4LTYuODgsMjkuNDktOS43Nyw0NC4zNS0yLDEwLjQzLTMuMjcsMjEtNC42NywzMS41OC0uMjYsMS45NC0uNzcsNS4wOCwyLjMyLDUuMDYsMS42MywwLDMuMzctMi4xLDQuODItMy41LjYxLS42MS42OC0xLjg0Ljg1LTIuODJhMzYuMjUsMzYuMjUsMCwwLDEsOC4wOS0xNy4zN2M1LjU1LTYuNjIsMTEuMi0xMy4xOCwxNi4zMi0yMC4xMiwyMC0yNy4xNiwzOS44Ni01NC40Niw1OS43OC04MS42OSwyLjQ5LTMuNCw1LjA3LTYuNzMsNy42MS0xMC4xbDEuMDcuMzVjLjA5LDEuNi4yMSwzLjIuMjYsNC44MS40MywxNCwuNjgsMjgsMS4zMiw0MiwxLDIxLjEyLDIuNjIsNDIuMjIsMy4yNCw2My4zNXExLjE5LDQwLjY5LDEuMTQsODEuNDFjMCwxOS40OC0xLDM5LTEuNTgsNTguNDVhMjEuOTQsMjEuOTQsMCwwLDEtMSw0LjIyTDMwOSw1NDEuNTlsLTEuNDUsMS4yNywzLjkzLDYuMzItLjkzLDEuMDljLTEuOTMtLjU3LTMuOTItMS01LjgtMS43NS0yMS41NS04LjE3LTQzLjQzLTguNjUtNjUuNTktMi45MmwtLjE3LjMtLjIzLS4yNC04LjA5LDIuNDksMS43MSwxLjc3YzQuNy0xLDkuMzgtMi4xNCwxNC4xLTMsMTcuMDctMy4zMiwzNC0zLjE1LDUwLjYzLDIuNDlhNDEuMDcsNDEuMDcsMCwwLDEsNC44MiwyLjMzYy0xLDEtMS41OSwxLjI4LTIuMTgsMS4yMS0xMy4xNS0xLjQ3LTI2LjE2LS4zNS0zOS4wOSwyLjA3LTEuNDIuMjYtMi42NywxLjM4LTQsMi4xM2ExOC45LDE4LjksMCwwLDAsMy42LjA5YzQtLjU2LDcuOTQtMS40OSwxMi0xLjg4LDQuMy0uNDEsOC42NC0uNDUsMTMtLjUsOS4zMy0uMTEsMTguNjctLjE3LDI3LjQ5LDMuNThhMjMuMjEsMjMuMjEsMCwwLDEsMy41OCwyLjM1LDcuNDcsNy40NywwLDAsMS0zLjgsMS4zNWMtMS4zMy4xNS0yLjY3LjE5LTQsLjQ0YTEzNy4zMiwxMzcuMzIsMCwwLDEtNTAsLjQzLDEzLjIsMTMuMiwwLDAsMC0zLjQyLjE4LDY4LjU2LDY4LjU2LDAsMCwxLTYuODIuODJjLTUuNzkuMDgtMTEuNTktLjE1LTE3LjM4LDAtLjc5LDAtMS41NSwxLjQ2LTIuMzIsMi4yNWgzNTFjLS41My0uODItLjkxLTIuMTMtMS42Mi0yLjM1YTI4LjU4LDI4LjU4LDAsMCwwLTcuMzMtMS40M2MtMTEuMTMtLjI4LTE3Ljc4LTcuMy0yMy4zLTE1LjYzLTguNS0xMi44NS05Ljc2LTI2LjkyLTUuODYtNDEuNiwxLjM5LTUuMjMuMTUtNi43Ni01LjI4LTYuMTctMi40My4yNy00Ljg0Ljk0LTcuMjYuOTItMywwLTQuODktMS43LTQuODgtNSwwLTkuODMuMjMtMTkuNjIsMy4yMy0yOS4xNSwxLjYyLTUuMTMuNDYtNi43OC01LTYuOC04LjgyLDAtMTcuNjYuMTQtMjYuNDcuNjctMy40LjIxLTUtMS01LjU3LTQtMS41NC04LTMuMDYtMTYtNC40Ni0yNC0uMzctMi4xMi0uMTMtNC4zNC0uNDMtNi40OC0uNTgtNC4yMS0xLjQzLTguMjUsNC4zMy05LjkxLDEuMzctLjQsMi4yNS0yLjc0LDMuMjEtNC4yOCwyLjA4LTMuMzEsMy42My03LjA2LDYuMTYtMTAsNS44OC02Ljc1LDEyLjA3LTEzLjI2LDE4LjQ2LTE5LjU0LDItMiw0Ljg5LTMuMTksNy42LTQuMTUsNC4yNS0xLjQ5LDctNy4wNyw1LTEwLjcyLTItMy40Ny04LjExLTUtMTEuOTMtMS43LTUuMTEsNC40Ny0xMC42NSwzLjY4LTE2LjM4LDMuNTktNS4zMy0uMDctMTAuNjYtLjA4LTE2LS4yLTUtLjExLTkuOTQtNC40OC0xMC4zMi05LjQ1LS42NC04LjI3LTEtMTYuNTctMS40Ny0yNS42LDUuMTgtLjU4LDEwLjM3LTEuMzYsMTUuNTgtMS41OSwxLjE1LS4wNSwyLjUsMS43MiwzLjU0LDIuODZhMTAuNzYsMTAuNzYsMCwwLDAsMTEuODgsMi43MmM0LTEuNTIsNi4wOS01LDUuOTEtOS40NC0uMTMtMy4xMy0xLjI2LTUuNjYtNC40OC02LjQxLTIuODQtLjY3LTMuNzEtMi4zNS0zLjY0LTUsLjA4LTMuMywwLTYuNjEsMC05LjYzLDQuNzktMiw5LjI5LTMuNjQsMTMuNjEtNS43LDYuNDktMy4wOCwxMS4xMi04LjM3LDE1LjEzLTE0LjEyLDEuNjYtMi4zNywyLjkxLTIuNzcsNS42OC0xLjgsMTUuMzQsNS4zNSwzMC44LDEwLjM0LDQ2LjE0LDE1LjY4LDEuNzQuNiwzLjksMi4zNiw0LjMzLDQsOC4yMiwzMS4yMywyOC45MSw1Mi4zMyw1NS4yNiw2OWExNzkuNjEsMTc5LjYxLDAsMCwwLDQ1LjkyLDIwLjMxYy45My4yOCwxLjg0LjYzLDQsMS4zOS0yOS43MiwxOC01NS4zMywzOS43Ny04MS4wOSw2My4wOCw1LjcsOC4yNSwxMS4zOCwxNy4xOSwxNy43OCwyNS41OCwxNi4yMiwyMS4yOCwzMi43OCw0Mi4zMSw0OS4xNyw2My40NmExMS43NSwxMS43NSwwLDAsMSwyLDQuNTRjLTExLjY0LTUuNy0yMy4xMy0xMS40MS0zNS44MS0xNC4wN3MtMjUuMzktMy0zOCwxLjM3YzE3Ljg2LTEuNTcsMzUuNC0xLjA4LDUxLjcyLDcuMTIsMCwuNTctLjA1LDEuMTQtLjA4LDEuNzEtNC4zLS4xOS04LjguMzctMTIuODUtLjc0LTguMjItMi4yNi0xNi4xMi0uMzctMjQuMTUuNDUtNi41NC42LTEyLjQ0LDMtMTguMTQsNi4xOGE3Ny4xLDc3LjEsMCwwLDAsMTAuODUtMmMyLjc3LS43LDUuNDctMS42Miw4LjIxLTIuNDVsMTMuNDYtLjI4di4zMWwuMzQtLjA4YzUuMzQuNTUsMTAuNywxLDE2LDEuNjlhMTYuNiwxNi42LDAsMCwxLDYsMi4xM2MtMTAuMzgsMS4yNy0xOS4yLDUuNTgtMjcuMTQsMTEuOS0xMC44OS0uMDktMjEuNzgtLjE5LTMyLjY3LS4yMi0uNjYsMC0xLjMxLjYxLTIsLjk0aDQyYzEtMS4wNywxLjgzLTIuNTMsMy4wNy0zLjEzQTQ3LjIxLDQ3LjIxLDAsMCwxLDY3Niw1NTkuODNjNC4wNywxLjE0LDgsMi45NCwxMS45Miw0LjQ5LjE1LjA2LjA5LjY4LjEzLDEtMTQuMTIsMC0yOC4yNC0uMDctNDIuMzUsMGEyMC41NiwyMC41NiwwLDAsMC00LjE2Ljg3aDE3NmMtLjktMi4wOC0uOS0yLjE1LTMuNC0yLjE4LTQuODksMC05Ljc5LDAtMTQuNjgsMGwtLjIyLTEuNTEsOS43OC0yLjQ0LDEwLjExLTEuNzhjMTAuOS0uMzksMjEuODQtMS41NCwzMi42Ny0uODQsNS42LjM2LDExLDQsMTYuNDYsNi4xNywxLjMxLjUzLDIsMS4zLjE3LDIuMTdhOS4wNiw5LjA2LDAsMCwwLTEuOTMtLjQzcS0xOS4yMywwLTM4LjQ3LDBjLS41LDAtMSwuNTYtMS40OS44Nmg0NmEuNS41LDAsMCwxLC4yNS0uNzVjLTUuMTQtNy43MS0xMy41MS04Ljg1LTIxLjU4LTEwLjU5bC0uMTktLjI5LS4yMS4yNy01LjcyLS4xNS0xMC4xLS4wNS03LjcuMi0uMjItLjI1LS4xNS4zNC4wNSwwLS4wNSwwLTYuNzguNzRjLTUuMzEtMS4xNS0xMC4xMS43NC0xNC45MywyLjUxbC0zLS4yMkExMzIuOTEsMTMyLjkxLDAsMCwxLDg0NSw1NDJsMy4yNy0xLjI1LDUuNjUtLjc5YzMuNDQtLjM5LDYuOS0uNjgsMTAuMzItMS4xOSw2LjE4LS45MSwxMi4zNC0xLjk0LDE4LjUyLTIuOTItOS42My0yLjgyLTE5LjA3Ljg2LTI4LjYxLDEtLjQzLDAtLjg2Ljc3LTEuMjgsMS4xOWwtOC42NywxLjI5LTEuNDEuNDhjLTEyLjgzLDIuMjUtMjUsNi41OC0zNi44NywxMS44NWE0Mi4yNSw0Mi4yNSwwLDAsMS00Ljc1LDEuNDlsLTEtMS40NGE3ODUuODcsNzg1Ljg3LDAsMCwxLDc2LjA5LTkwLjc1Yy0yNy0yMy4yLTU1LTQzLjk1LTg3LjQ2LTU5Ljk1YTE0LjU0LDE0LjU0LDAsMCwxLDIuMTQtMS4xNiwzMy44NiwzMy44NiwwLDAsMSwzLjQxLS43MWMxOC4yOC0yLjczLDM2LjA5LTcuNCw1My43Ny0xMi42OWExMy43NywxMy43NywwLDAsMSw3LjI5LDBjMTkuNTEsNS40NiwzOSwxMS4yLDU4LjQ0LDE2LjcxLDIuNjcuNzUsNS41NS43MSw5LDEuMTItMS4yNS03LjM5LTYuMjItOS4yNC0xMS0xMC43OS0xMy00LjE1LTI2LTgtMzktMTJhMjAuMTksMjAuMTksMCwwLDEtMy40MS0yYzYtMi44MywxMS4zOS01LjI5LDE2LjctNy44OEExMDMuNjcsMTAzLjY3LDAsMCwwLDkxNi41MSwzNDkuMzlabS03OTAtMjUyLjYyYzMuMTItMy43OCw2LjY4LTcuMjEsMTAuMTctMTAuNjcsOC40MS04LjM1LDE2LjYxLTE2LjkyLDI1LjQtMjQuODQsMTUuNzctMTQuMiwzMi4zNS0yNy40LDUxLjItMzcuNDRhMjAsMjAsMCwwLDEsMi43OC0xaC4yM2M0LjQzLTIuMTEsOC43LTQuNjQsMTMuMy02LjI0LDguNTQtMywxNy4xNS02LDI2LTcuODcsOC40OS0xLjc5LDE3LjI5LTIuMTMsMjUuOTUtMy4xMWwzLjA5LS4yYTUxLjY3LDUxLjY3LDAsMCwxLDYuNTktMWM0LjQ1LS4xLDguOTEsMCwxMy4zNS4yLDEuNTIuMDgsMywuODYsNC40OSwxLjMybDMuNDctLjExLDkuNjIsMWEuMzkuMzksMCwwLDEsLjY0LS4yYzguNjctLjQ0LDE2LjYsMi41NiwyNC41NSw1LjM3LDE2Ljg4LDYsMzIuMTIsMTUsNDYuNDUsMjUuNTUsMjMuMzEsMTcuMTgsNDIuNjEsMzcuNzksNTQuNiw2NC41OUM0NTQuMSwxMTUsNDU5LjU1LDEyOCw0NTguODIsMTQyLjI2YTg1LjgzLDg1LjgzLDAsMCwxLTUuMTgsMjUuMTRjLTcsMTguODYtMTkuMzYsMzQuMjUtMzQuMjcsNDcuNTYtNS43OSw1LjE2LTExLjkzLDkuOTMtMTcuOTEsMTQuODhhMS4yNiwxLjI2LDAsMCwxLS43Mi41NmMtNC4wNSwzLjQxLTcuMjUsOC40LTE1LDcuNzJsMy42Ny02Ljc5LDMuNzUtOS4yOGE5MS42Niw5MS42NiwwLDAsMCwxLjQ0LTkuMTNjLjA3LS44Ni0xLjMtMS44My0yLTIuNzUtMSwuODUtMi41NCwxLjUtMywyLjU4LTIuNyw2LjU3LTQuNTYsMTMuNTctNy45NCwxOS43NC0yLDMuNjgtNi4wOCw2LjQxLTkuNjcsOC45NS0xLjQsMS00LjYsMS4xMy01Ljg4LjE4cy0xLjc0LTMuODItMS41Ni01Ljc1LDEuNTktMy44OSwyLjQ5LTUuODFhMTMuNTIsMTMuNTIsMCwwLDAsMS41MS0zLjA1LDQ0LjYyLDQ0LjYyLDAsMCwwLC4zNC01LjU2bC02LjEzLjY0LS4yNS4zNGMtMywxMS4yOC05LjQ5LDIwLjA3LTE5LDI3LjY0LTIuMzItNC40OC0zLjYzLTgtMi4xNi0xMi42NSwzLTkuMzgsNy41Ni0xNy45MSwxMi40NC0yNi4zNWExNi4yMywxNi4yMywwLDAsMCwxLTIuOTVjLTMuMzItMS40Ni01Ljc3LTEuMjItNy45NCwxLjcxQTQ3LjcyLDQ3LjcyLDAsMCwxLDM0MiwyMTQuN2wtLjA3LDBjLTEuNTUsNC44Ny00LjMxLDguNjctOS4yNCwxMC41OC44Miw0LjQ4LTIuNDUsNy4xNy00LjkxLDkuODEtNS40Miw1LjgtMTEuMjgsMTEuMjItMTcuMTUsMTYuNTgtMS41NiwxLjQzLTMuODQsMi4wNi02LjQxLDIuNDQsMS4zNi0xNiwxMC42NS0yNy4zMiwyMC44Ny0zOC4xNWwxLjMyLTEuMTdjNS4wNy0zLjYyLDEwLTcuNTUsMTUuMjctMTAuNzksNy43NC00LjcxLDE1LjgxLTguOTEsMjMuNjgtMTMuNDEuNTktLjM0Ljc3LTEuMzgsMS4xNS0yLjA5bC0xLjMzLTEuMzJjLTQuODksMS45NC0xMC4xLDMuMzMtMTQuNTgsNS45NS04LjYzLDUtMTcuNDUsMTAuMDYtMjUsMTYuNDUtNi4xOCw1LjIxLTExLjYxLDUuMjEtMTguNTEsMi43My0yOC44NC0xMC4zNy01Ny43OS0yMC40Ni04Ni42OS0zMC42OS0xLjM3LS40OC0yLjYyLTEuMjgtNS4xMi0yLjUxYTY5LjExLDY5LjExLDAsMCwxLDcuNTYtMS45M2MxMS41My0xLjQxLDIzLjA3LTMuNTgsMzQuNjItMy42Niw1Ljc4LDAsMTEuNTQuMjYsMTcuMjktLjYxYTEuNjksMS42OSwwLDAsMSwuNDkuMDlsNC45LS40NmEuODQuODQsMCwwLDEsLjA1LS43N2wtLjI4LS4yM2MtNC4zLjIxLTguNDIuMzUtMTIuMDctMy0xLS45NC00LjYtLjY0LTUuNzQuNDQtMi41NCwyLjM5LTUuMjYsMi4zOC04LjI1LDIuMzMtMy4zMS0uMDYtNi42MiwwLTkuOTQsMGwtMy40NC40Ny0yMy41NywyLjcxLTQuMywxLjEzYy00LjYzLDIuNC04Ljc2LS4yOS0xMi45NC0xLjQ2LTQuNzktMS4zNC05LjM3LTMuNDItMTQuMTYtNC43OS0yLjY4LS43Ny0zLjM5LTIuMy0zLjI2LTQuNzIuNC03Ljg0LjEzLTE1LjU3LTMuMTgtMjIuOTItLjQ0LTEsLjMxLTIuNDYuNTUtMy45M2wtNS41MS0zYy0uNzEsMS43OC0xLjM1LDMuMzYtMi4xOCw1LjQzLDUuMjUuNzgsNi4yMyw0LjM5LDYuMzMsOC4zNi4xNCw1LjczLDAsMTEuNDcsMCwxNy45LTcuNDYtMi41NC0xNC41MS00Ljg0LTIxLjUtNy4zNC0xNy44MS02LjM2LTM1LjU3LTEyLjg1LTUzLjM5LTE5LjItNS4zNC0xLjktNS40MS0yLjMtMi42OS03LjA4QzEwOC4wNiwxMjAsMTE3LjA2LDEwOC4yMywxMjYuNTIsOTYuNzdaTTMzNy4xNywyMzMuNDFsLS4zLjExYTEuNDksMS40OSwwLDAsMS0uMDgtLjRjMC0uMDUuMTgtLjA4LjI4LS4xMlpNMTkwLjMsMTgxLjA5LDE3NywxODUuNDlDMTc4LjcyLDE3NS43NSwxODAuODQsMTc1LDE5MC4zLDE4MS4wOVptLTE2LjY0LDI4LjQ0Yy00LjIzLTItNy0yLTE0LjUzLS4yMS0xLjczLTMuMDkuNDktNC45MiwyLjU3LTYsNC41Mi0yLjMsOS4xNS00LjksMTQtNS44OSwxMS4zLTIuMjgsMjIuNzUtMy4xNSwzNCwxLDguNjksMy4yNCwxNi40Myw4LjA2LDIyLjM5LDE1LjE3LDYuNDksNy43NCw2LjQ0LDE5LjY3Ljg3LDI5LjU3LTUuMjksOS40MS0xMy45MiwxNC43MS0yMy4zLDE4LjYzLTE4LDcuNDktMzYsNi4xNS01Mi44OS0zLjExLTctMy44NS0xMy40Mi05LjQtMTUuMjQtMTguMi0xLjM4LTYuNjUtLjQ5LTEyLjQ2LDUuNTktMTYuNjdhNzEuMjUsNzEuMjUsMCwwLDAsNS44MS01YzQuNjEsOC41OSwxMi44MiwxMSwyMS4yMSw2LjUxYTguNTMsOC41MywwLDAsMCw0Ljc1LTguNThDMTc4LjY4LDIxMywxNzYuNjUsMjExLDE3My42NiwyMDkuNTNabS03LjIyLTI0LjM1YTMwLjI4LDMwLjI4LDAsMCwxLTEzLjA4LTYuMzRjLTcuMS01Ljg5LTE1Ljg4LTguNzEtMjUuMS05LjgyLTQuOTQtLjU5LTkuODgtMS4yNS0xNC44My0xLjY3LTkuMTMtLjc4LTE3LjgxLDEuNTQtMjYuNDYsNC0yLC41Ni00LC43LTcsMS4yMS43Mi0yLjU5Ljg5LTQuMjQsMS42LTUuNiwzLjEyLTYsNi40Ny0xMS45Miw5LjYtMTcuOTQsMS40LTIuNjksMi44LTMuMjUsNS45My0yLjEsMTQuNjYsNS4zNiwyOS40NywxMC4yOSw0NC4yMSwxNS40NSwxMC40OCwzLjY3LDIwLjkyLDcuNDYsMzEuMzcsMTEuMjEsMi40Ni44OCwzLjY0LDIuMzIsMiw0LjkyLTEsMS41NS0xLjk1LDMuMDgtMi44MSw0LjY5QzE3MC42MSwxODUuNTUsMTY5LDE4NS43OCwxNjYuNDQsMTg1LjE4Wm0tOTMuNy00Mi43OWMtMi44OSwyLjgyLTUuNjksNS43Ni04Ljc3LDguMzZhMy42NSwzLjY1LDAsMCwxLTMuNTQtLjIxYy0uNjMtLjU1LS43Mi0yLjYtLjE4LTMuNDQsMy00LjcsNi4yLTkuMjMsOS4zNC0xMy44MiwyLjUxLTMuNDQsNS4xOC02Ljc3LDcuNDEtMTAuMzguNjYtMS4wNy42LTMuODMsMC00LjE5LTEuMjgtLjczLTMuMjEtLjQ0LTQuODUtLjMyLS40NywwLS45MS44OS0xLjMzLDEuNDEtMi4zNSwyLjkyLTQuNiw1LjkzLTcsOC43OS05LjE0LDEwLjctMTkuNjUsMTkuMzUtMzQsMjItMS45LjM2LTMuOTIsMC02LjU2LDAsMy40Ni02Ljk1LDguMzEtMTEuMzgsMTMuMjQtMTUuNzMsMTEuOTItMTAuNTIsMjYuMTctMTYuNjYsNDEtMjEuOCwxMS4yOC0zLjkzLDIyLjUzLTgsMzMuODEtMTEuODlhMTcuODUsMTcuODUsMCwwLDEsNy41NC0xYy0yLjksMy41NS01LjcxLDcuMTctOC43MywxMC42Mi0xMi4zNSwxNC4xMi0yMS40NCwzMC4yOC0yOS43Niw0N2EzMS44NSwzMS44NSwwLDAsMS0zLjQ2LDQuNjVsLTEuNzQtLjk1YTMyLjc5LDMyLjc5LDAsMCwxLDEuNzgtNS43MmM0LTcuNjIsOC4zNi0xNS4wOSwxMi4zMi0yMi43NCwxLTIsMS4wNi00LjQsMS41NS02LjYyYS40MS40MSwwLDAsMS0uMzYtLjMzYy0zLjU4LS43Mi01Ljg0LjktNy41OSwzLjkyYTg4LjkxLDg4LjkxLDAsMCwxLTYsOUM3NS43NiwxNDAuMzYsNzQuMTEsMTQxLjI3LDcyLjc0LDE0Mi4zOVptLTguODcsNjIuNTRjMS44LTQuNDMsMy05LjExLDQuNzEtMTMuNTgsMi4yNy01LjkxLDYuOTQtOS41MiwxMi4zOC0xMi4zOSwyMC0xMC41NCw0MC4zMy05LjQ0LDYwLjc4LTEuNjYsMy4xNywxLjIsNS45NSwzLjQzLDkuNzYsNS42OC03LjI5LDIuMDktMTMuMzYsMy4yNy0xOSw1LjU1LTExLjYzLDQuNzItMjIuMzYsMTEuMDUtMzEuNTIsMTkuODItMS41NiwxLjUtMy42NCwyLjQ3LTYuMjYsNC4yMWwtLjU3LDQuMjJjMy41Ni0xLDUuNzQtMi4xOCw3LjU1LTUuOXM2LjgxLTYsMTAuNTMtOC43NmEzOS43NCwzOS43NCwwLDAsMSw1LjA1LTIuNzdjLjM1LjY3LjY5LDEsLjYxLDEuMjQtMyw4LjExLS4wOCwxMy40Myw4LjUxLDE0LjM3YTI3LjU4LDI3LjU4LDAsMCwwLDEwLjc0LS44NmM1LjE2LTEuNTUsNy41LTUuNjMsNy4yMS0xMC42Mi0uMjgtNC43My0yLjUtNy4xNy04LTguODVhMTQuNzIsMTQuNzIsMCwwLDEtNC0xLjg0LDQ2Ljg1LDQ2Ljg1LDAsMCwxLDE5LjUtNC45M2MxLjQ0LDAsMy41NiwxLjksNC4yNCwzLjQyYTEyLjUsMTIuNSwwLDAsMS0zLjM4LDE0LjExLDUwLjc4LDUwLjc4LDAsMCwwLTEzLjU2LDE3LDE1LjMsMTUuMywwLDAsMS00LjcyLDQuOWMtNi43NCw0Ljk0LTE0LDguOS0yMi41OCw5LjNhMTc2LDE3NiwwLDAsMS0xOC45NC4xM2MtMTAuODgtLjY3LTE5LjczLTYtMjYuMzctMTQuMjZBMTYuODUsMTYuODUsMCwwLDEsNjMuODcsMjA0LjkzWm0yNDkuNjEsNzQuMzZjLTMsMS42Ni01LjQ5LDQuNTYtNy43NCw3LjMtMy40Myw0LjItNi40Niw4LjczLTkuNjcsMTMuMTEtMi4xMSwzLjUxLTMuOTUsNy4yMy02LjM5LDEwLjQ5LTUuNzMsNy42NC0xMS43NSwxNS4wNi0xNy42NSwyMi41Ni0yLjI2LDMuMjUtNC40OCw2LjU0LTYuNzksOS43NS0xMC44NSwxNS4xMS0yMS42NSwzMC4yNi0zMi42NSw0NS4yNi0zLjUxLDQuNzctNy42MSw5LjEyLTEyLjIyLDE0LjU4LS4zMy0yLjE0LS43MS0zLS41NS0zLjgzLDMuMjUtMTYuNjIsNi4xMi0zMy4zNCwxMC00OS44MSwzLjIzLTEzLjcyLDcuODQtMjcuMTEsMTEuNTItNDAuNzMsNC4xMS0xNS4yMiw4LjIxLTMwLjQ2LDExLjU5LTQ1Ljg2LDEuMjgtNS44NS44LTEyLjE2LjUyLTE4LjI0YTYuMjksNi4yOSwwLDAsMC0zLjY0LTQuNTljLTIuNjktLjc5LTMuNTEsMS43Mi00LjUzLDQuMDZDMjM4LDI2MCwyMjcuNiwyNzQuNDksMjE1LjUyLDI4OGMtMTIuNCwxMy44My0yNy4zNCwyNC4zNi00My41MiwzMi45Mi0xNi40MSw4LjctMzMuNTcsMTYtNTAuMzgsMjMuOTUtMjAuNzUsOS44Mi00MiwxOC44LTYxLjEsMzEuNjVhMTY4LjI3LDE2OC4yNywwLDAsMC0yMy4yLDE5LjRjLTkuNDksOS4yNS0xOC4yMywxOS4yNi0yNy4zMiwyOC45M2EyMC40NiwyMC40NiwwLDAsMS0yLjc2LDEuOGMuNDgtNS4yMi44My05LjM5LDEuMjYtMTMuNTUuOTItOC43NiwxLjktMTcuNTEsMi44My0yNi4yNywyLjQ1LTIzLDQuMjEtNDYuMDUsNy42My02OC44NywxLjY2LTExLDUuODUtMjEuODEsOS45LTMyLjMyLDcuODctMjAuNDEsMTYuNDItNDAuNTYsMjQuNzUtNjAuNzksMS4yMi0zLDIuNzgtNS43Nyw0LjU4LTkuNDhDNjUuNDMsMjM0LDgwLDIzOS4yOCw5Ny4yNSwyNDAuMmMxMC4zOS41NSwyMC42MS4yMSwzMC4yNC00LjU4LDEuNzgtLjg4LDQuMTktLjQ4LDYuNTgtLjdhMTkuNDUsMTkuNDUsMCwwLDEsMSwzLjVjLjkxLDEyLjE5LDkuMTIsMTguNzEsMTguODEsMjMuODMsMTQsNy4zOSwyOC45MiwxMC41MSw0NC40Myw3LDE2Ljc1LTMuNzcsMzItMTAuNjEsNDAuMjEtMjcuMiw4LjM4LTE2Ljg1LDQtMjguMzktOS41Ni0zOS40NkE1MS4zLDUxLjMsMCwwLDAsMTk2LjE3LDE5MWMtNy43LDAtMTUuNC42MS0yNC4yNCwxbDEzLjM0LTUuNjFjLjE1LS4wNy4zNSwwLC40OC0uMTIsMTAtNi4xNCwxOS4zNy0xLjA2LDI4LjYxLDIuMTMsMjIuNzQsNy44Niw0NS4zNCwxNi4xNyw2OCwyNC4yLDguOTIsMy4xNiwxNy45NCw2LDI3LjkzLDkuNC0xLjQ2LDIuODgtMi44NSw1LjM1LTQsNy45My0yLjgyLDYuMzEtNS43LDEyLjYtOC4yMSwxOS0xLjQzLDMuNjQtLjA1LDcsMyw5LjI4YTcuNyw3LjcsMCwwLDAsMTAuMTUtLjQxYzcuMjYtNi41MiwxNC4xOC0xMy40MiwyMS4yMi0yMC4xOS43LS42OCwxLjI3LTEuNDksMi0yLjE3LjE4LS4xOC42Mi0uMDksMS40NS0uMTktLjYxLDMuMDctMS4wNiw2LTEuODIsOC45LS45MywzLjUtLjc3LDYuNjgsMi4zNyw4Ljk0LDIuNzUsMiw3LjksMS42NCwxMC44Ny0uNTcsMy4zLTIuNDYsNi41LTUuMDUsMTAuMjUtOCwzLjcyLDQuNTgsOS4yLDMuNywxNS42MiwzLjU4LTEsMS45Mi0xLjI1LDMuNTktMi4yMyw0LjI3YTE3Ni40MywxNzYuNDMsMCwwLDEtNDQuODUsMjIuMzlDMzIxLjg1LDI3Ni4xOSwzMTcuMzUsMjc3LjE3LDMxMy40OCwyNzkuMjlabTQyLjI5LDI3Ni40NWMtLjA5LDItLjMsMy44OS0yLjc1LDMuOTEtOS45My4wOS0xOS44NiwwLTMwLjE1LDAsMC00Ljc2LS4xMy05LjcxLDAtMTQuNjUsMS41LTQ4Ljc5LjM3LTk3LjU1LTEuMzctMTQ2LjMxLS44Mi0yMy0xLjU4LTQ1LjkxLTIuNC02OC44Ny0uNTItMTQuMy0xLjE1LTI4LjYtMS41NS00Mi45LDAtMS41NS43Mi00LjA2LDEuODEtNC41NSwxMC43My00Ljc5LDIxLjYxLTkuMjQsMzMuNTMtMTQuMjQsMCw5LjU1LjEsMTguMzMsMCwyNy4xMS0uMzEsMjEuODItMS40OSw0My42NS0uOTEsNjUuNDMuODksMzMuNzcsMi4yNiw2Ny41NSw0LjY5LDEwMS4yNEMzNTguOTMsNDkzLjMsMzU3LjMsNTI0LjQ5LDM1NS43Nyw1NTUuNzRabTgtMTkuNDZjLS40NC0yNy0uNTctNTMuOTQtMS40Ny04MC44OS0xLjE1LTM0LjExLTMuNzItNjguMTgtNC4yMS0xMDIuMjktLjQxLTI4LjExLDEuMzEtNTYuMjUsMi4wNS04NC4zOC4wOS0zLjQsMS4xNi01LjY1LDQuNDQtNy40NSw2LjM5LTMuNDksMTIuMzItNy44MSwxOC42MS0xMS40OGE3LjM1LDcuMzUsMCwwLDEsNS4zOC0uNTljMTEuODMsMy44OSwyMy41Nyw4LDM1LjM0LDEyLjExLDEwLDMuNDksMjAsNywzMC41NiwxMC43MmEyOS43NywyOS43NywwLDAsMCwuMjgsNS4wOGMxLjEyLDUuMTMsMS4xMSwxMS4xOCw0LDE1LjEzLDYuMTEsOC40OCw2LjI1LDE3LjkyLDcuMjIsMjcuNDEuMSwxLDAsMiwuMTgsMywuOTIsNS45My45Myw1LjkzLTUuMjMsNi4zN2E3OS41Miw3OS41MiwwLDAsMS05LC41NCwxOS43NCwxOS43NCwwLDAsMS02LjkzLTEuNDljLTMuNS0xLjUzLTcuNjMtMS4zMi0xMC4yNywxLjEyLTIuNDgsMi4yOC0yLjQ0LDUuMjEtLjQ5LDhhMTkuNjksMTkuNjksMCwwLDEsMy4zMyw2Ljg4YzIuNjUsMTIuMTcsNS4wNSwyNC4zOSw3LjQzLDM2LjYyLjIzLDEuMTctLjQsMi41LS40LDMuNzUsMCwxLjU1LS4zNSwzLjguNDgsNC40OSwxLjM2LDEuMTIsMy41NCwxLjUsNS40MiwxLjY2LDEuMi4xLDIuNDUtMSwzLjczLTEuMTcsNi40MS0xLjA1LDcuNTcuMjEsNi4zNyw2LjU5LS40NiwyLjQ1LS40MSw1LTEuMTcsNy4zOGE1MC4yNiw1MC4yNiwwLDAsMS00LjE4LDkuODRjLTIuMTYsMy43MS0yLjA1LDcuMzEsMSwxMC4zOC43OC43OSwxLjgyLDEuNjUsMiwyLjYzLDEuOTMsOS4yNiwzLjc3LDE4LjU0LDUuNDYsMjcuODUuMzEsMS43My0uMTcsMy41OS0uMzIsNS45LTUuOTQuMjktMTEuNy40NS0xNy40NS44OS00LjMxLjMzLTguNjIuODQtMTIuODgsMS41OS01LjUxLDEtNi44OSwzLjQtNS4yMiw4Ljc5LDEuMzcsNC40NSwzLDguODEsNC4zMywxMy4yN2E1NC4xOCw1NC4xOCwwLDAsMSwxLjEzLDYuMzZMNDE4LDQ5NS43N2MyLjU3LDcuNTMsNS4wNiwxNC43OSw3LjU0LDIyLjA1LjA4LDEsLjE1LDEuOTIuMjMsMi44OGwtMSw2LjQ3TDQyNSw1MzBjLS44OCwzLTEuNTYsNi0yLjY4LDguODctMyw3LjY1LTMuMDYsNy42My0xMS4xNiw2Ljc4aC0yLjI2Yy01LjkzLjM3LTExLjg4LjU2LTE3Ljc5LDEuMTZzLTExLjU5LDEuNTktMTcuMzgsMi40MWMtLjE4LS40NS0uMzUtLjktLjUzLTEuMzYsNy4xNC0zLjIzLDE0LjE2LTYuNzYsMjEuNDQtOS42MSw3LjY5LTMsMTUuNjQtNS4zNywyMy40Ny04bC0uMzItMS44Yy0xNC4xMiwzLjEzLTI3LjksNy4zMS00MC44MywxMy44OS00LjI0LDIuMTYtOC4xOSw0Ljg4LTEzLjE4LDcuODhDMzYzLjgxLDU0NSwzNjMuODgsNTQwLjY2LDM2My44LDUzNi4yOFptNi4zLDIzLjc3YzAtLjQzLS4wNy0uODYtLjEtMS4yOWwyOC43OS0yYzAsLjQ2LDAsLjkyLjA3LDEuMzhDMzg5LjUxLDU2MiwzNzkuNjYsNTU5LDM3MC4xLDU2MC4wNVptNDEtNC40N3YuMjlsLS4yNi0uMTZjLTkuMjMtLjQ5LTE4LjQ2LTEuMDgtMjcuNy0xLjQxLTIuMzctLjA5LTQuNzYuNzgtNy4xNSwxYTYuODYsNi44NiwwLDAsMS0zLjU1LTEsMTE1LjA2LDExNS4wNiwwLDAsMSw0My45NC01LjUyWm04NS43LTkwLjg1YzUuNDMtLjI3LDEwLjg4LS40LDE2LjMyLS4zNyw1Ljg5LDAsNy44NiwyLjcyLDcuMTUsOC41NmExNzUuMzIsMTc1LjMyLDAsMCwwLTEuNjgsMTkuNzhjLS4wNyw4LjExLDEuNjYsOS40Nyw5LjcsOS42LDEuODEsMCwzLjYyLDAsNi4yNCwwLS40NCwzLjgtLjU1LDcuMi0xLjI2LDEwLjQ4LTMuMSwxNC4yNSwyLDI2LjI5LDkuNjksMzcuNzUsMS43OSwyLjY4LDMuMjMsNS42LDUuMDcsOC44MS04LjQ3LDIuNzMtMTYuMzYsMS41NC0yNC4yNCwxLjQtMTIuMS0uMjEtMjQuMjEsMC0zNi4zMi4xLTguODIsMC0xNy42NC4yLTI2LjQ2LjA4LTUuODEtLjA5LTExLjYyLS4zOC0xNy40LS45My04LjM0LS43OS0xNi42NC0xLjkxLTI1LjYzLTMsMS43OC0zLjk0LDIuMDYtNy40Nyw2LjM5LThhMy4xNCwzLjE0LDAsMCwwLDIuMDgtMS44MWMyLjQzLTcsNS42NC0xMy44OSw2LjczLTIxLjEuNzMtNC43Ni0xLjQ0LTEwLTIuNy0xNWE0NC42MSw0NC42MSwwLDAsMC0zLjMyLTcuNzFjLTEuNjItMy40My4xNC01LjMyLDIuOTItNi44MWE5LjY1LDkuNjUsMCwwLDEsMS0uMjZjOS4xMi0zLjQxLDkuNC00LDYuMzctMTMuNDRhNTAsNTAsMCwwLDEtMS44LTYuNjZjLTEuMjQtNy4wOS0xLjItNy4xNyw1LjQ3LTlhMjUuODMsMjUuODMsMCwwLDEsNi4zNy0uODljOS0uMTUsMTgsMCwyNy0uMjdDNDgxLjkxLDQ2NS44Nyw0ODkuMzYsNDY1LjEsNDk2LjgyLDQ2NC43M1ptLTIxLjYtODkuODljMTEuODItLjMsMjMuNjMtLjcsMzUuNDUtMWEyMS42LDIxLjYsMCwwLDEsMy43OC41N2MuMjIuNDEuNDMuODIuNjUsMS4yMi0zLjg1LDQuMDYtNy41OSw4LjIyLTExLjU3LDEyLjEzLTQuMTYsNC4wOC04LjQyLDguMDYtMTIuOSwxMS43Ni0xLjYzLDEuMzQtNCwxLjc4LTYuMDksMi41NS0yLjU5Ljk1LTUuNTIsMS4zNS03Ljc1LDIuODItNSwzLjI4LTUsNy40Ni0uNzcsMTEuNDVhNyw3LDAsMCwxLDIuMzIsMy44YzEuMjUsMTEuNzUsMi4yOSwyMy41MiwzLjM2LDM1LjI5LjExLDEuMywwLDIuNjEsMCwzLjgzLTYuMjksMS44NC03LjIzLDEuNTMtOS42Mi0zLjU5YTc0LjEyLDc0LjEyLDAsMCwxLTYuODUtMjkuNDVjLS4wNi0xLjg1LjgzLTMuODEsMS41Ny01LjYsMS4xNS0yLjgyLDEuMzEtNS4yNC0uNzItNy45MWE4LDgsMCwwLDEtMS4wOC01LjM1Yy42MS00Ljc3LDEuNjQtOS40OSwyLjU5LTE0LjIyLjI5LTEuNDMuNTMtMy4wOSwxLjQxLTQuMTIsMS44My0yLjE0LDMtNC40MS44NS02LjU4YTYuMzYsNi4zNiwwLDAsMC04LjI0LTEuMDZjLS41Ny4zNC0xLC45MS0xLjU5LDEuMi00LjQ3LDIuMjctOC42Ni42MS05LjYtNC4yMy0yLjMzLTEyLjA4LTQuNDEtMjQuMjEtNi41LTM2LjMzLS40Ni0yLjcsMi4xMi02LjQsNS4xMS02LjgxLDUuODgtLjgyLDExLjgyLTEuMTYsMTgtMS43My43Miw4LjgyLDEuNSwxNy4wNiwxLjk1LDI1LjMyLjA3LDEuMTktMS4zNCwyLjU0LTIuMjMsMy42OHMtMi4yLDItMywzLjI1Yy0yLjc2LDQuMS0xLjcxLDcuNDgsMy4wNyw4LjczQzQ2OS40NywzNzUuMTYsNDcyLjQxLDM3NC45MSw0NzUuMjIsMzc0Ljg0Wm0xNS42Ny00OC45M2MtLjMyLjA3LS42Ni4wNi0xLC4xbC0xNi41OSwxLjY3Yy0uNDItNy45NS0uOC0xNS4yLTEuMjMtMjMuMTQsMi44LjQ0LDUuMTQuOTQsNy41MSwxLjE0LDQuMzEuMzcsOC42My43NCwxMi45NC43NywzLDAsNC4zMiwxLDQuMTMsNC4wNi0uMTYsMi42NCwwLDUuMzEsMCw4QTcuMTUsNy4xNSwwLDAsMSw0OTAuODksMzI1LjkxWm0zMy42Ny0zOC40M2MtNS4yNCw3Ljc5LTEzLjYsMTItMjIuNjcsMTQuNDJhMTEuNTMsMTEuNTMsMCwwLDEtMy40LS4xM2wtNCwuMjVjLTMuODcsMC03LjgxLjQ2LTExLjYxLS4wNy03LjI4LTEtMTMuNzMtNC4wOC0xOC4yNC0xMC4xNC0zLjk0LTUuMy00LjE0LTExLjM2LTIuODktMTcuNjIsMS42OC04LjQ2LDguOTMtMTYuMzIsMTYuNjUtMTcuOTFsOC4xNi0xLjI0LDEwLC4zMSwxLjc5LjI4LDIuMjkuNjNjNS4zMiwxLjc1LDkuMTYsNS4zMSwxMi4xMyw5LjkyLDMuMzIsMy4zOCwyLjEsNy4zLjUsMTAuNjEtNC4xOSw4LjcxLTEwLjcsMTUtMjAuOTIsMTUuMzhhMjIuMjksMjIuMjksMCwwLDEtMTQuOTQtNC42MWMtNS4yLTQuMTItNC4xNy0xNS4zNywxLjYtMTguODNhMTQuMTUsMTQuMTUsMCwwLDEsMTUuMTEtLjA5YzEuNjgsMSwzLjM3LDMuNzEsMy4yNyw1LjU0LS4xNCwyLjQxLjQsNi0zLjI4LDctMi4zMi42NC00LjIxLDMuNTUtNy4xNi45NHMtMy01LjIyLTIuMDgtOC43NmwtNC40NCwzLjM4YzEuNSw0LjEsMi45MSw4LjA3LDcuNiw4LjM4LDUuNjguMzksMTEuMjYtMS4xNCwxMy43NS02LjYsMS4yNy0yLjc4LDAtNi43MS0uMTItMTAuMTNsLTIuNzQtMy0xMC40My0zLjUyLTkuOTIuODVhNDQuMyw0NC4zLDAsMCwxLTMuNTYsMy4zYy05LjM5LDctOC43NywyMSwxLjc1LDI2LjIsNS4xOCwyLjU0LDExLjMyLDMuMTEsMTcsNC41N2wyLjctLjY3YzMuMjItMS41MSw2LjQ0LTMsOS42OC00LjU0LDYuMzYtMi45Myw5Ljc3LTguNDksMTIuMTMtMTQuNTcsMy42LTkuMzItMi4yLTE5LjM0LTEyLjk1LTIzLjYyLTEwLjk1LTQuMzctMjEuNzctMy42NC0zMi41OS4zOGExOS4zNSwxOS4zNSwwLDAsMS0yLjM3LjY2Yy0uMTEsMC0uMjctLjE3LS43MS0uNDcsMi00LjkyLDYuMTctNy43NywxMC42OC05LjI4LDExLjg4LTQsMjQuMTktNC40NywzNS40NywxLjM2QzUzMy40LDI1NS4xOCw1MzYuMTMsMjcwLjI4LDUyNC41NiwyODcuNDhaTTg1Ni4yLDE0Ny4xOWw5LjQ2LDMuNjJjMS4yNS40MywyLjUzLjgsMy43NCwxLjMxLDEuNjcuNzIsMy4zMiwyLjI0LDUsMi4yLDYuNjktLjE2LDEwLjU1LDQsMTUuMTQsMTAuMThhMTEuODUsMTEuODUsMCwwLDAtMy4wOSwxLjQyYy02LjEsNC44MS0xMi4xMyw5LjczLTE4LjE0LDE0LjY2YTMwLjA3LDMwLjA3LDAsMCwwLTIuNjgsMi44NGwtMjEsMTkuNWMtMTguMjcsMTguMzgtMzguNDMsMzQuNTQtNTguNTQsNTAuOC0xMi4zNywxMC0yNC4wNywyMC44My0zNS44MiwzMS41OC05LjA5LDguMzItMTcuOCwxNy4wNS0yNi42MywyNS42Ni0xLjY1LDEuNjItMi45MywzLjYyLTQuNTgsNS4yM2EzNS41MSwzNS41MSwwLDAsMS00LjU0LDMuMTdjLS40NC00LjQ1LS43OC04LTEuMTMtMTEuNTMtLjQ1LTQuODgtMS4wNS05Ljc1LTEuMzMtMTQuNjQtLjU1LTkuNTItLjkyLTE5LjA2LTEuMzYtMjguNTlMNzEwLjQsMjYwYTEyLjc0LDEyLjc0LDAsMCwxLS43OC0yLjc1cS0xLjE4LTIzLjE1LTIuMjYtNDYuM2MtLjA3LTEuNDkuMS0zLC4xNi00LjQ3bC0uMTgtMi40NmMtMS4yNS03LjI0LTIuMzgtMTQuNDktLjY1LTIxLjk0LDcuMzgsNy43NCwxNi4yLDEyLDI1LjgsMTUuMDksMS42Ny41NCwyLjY5LDMuMDYsNCw0LjYzczIuNjcsMyw0LDQuNDRMNzM4LjI5LDIwMGMuMzktLjY2Ljc4LTEuODksMS4xOC0xLjg5LDQuMjEsMCw4LjQzLjEsMTIuNjUuMmwyLjcyLS4zOCwyLjI5LS4zMWM4LjI4LTEuNTYsMTYuMDctNC4zMywyMi43Ni05LjYsMi4yLTEuNzQsMy43OC0xLjY3LDUuMjkuNzMsNi41NiwxMC40NSwxNy4wNiwxNC4xNSwyOC4zOCwxNS4xMiw2LjY0LjU3LDEzLjQ4LTEuMTMsMjAuMjMtMS44MWwuMi0uMzEuMjguMiwyLjQzLS43MWM3LjE1LTMuNzMsMTQuNTItNy4xOCwyMC4xMi0xMy4yMywyLjQyLTIuNjIsNC41Ni01LjQ5LDYuODMtOC4yNGExLjA3LDEuMDcsMCwwLDEsLjM4LS43MWwtLjA5LS40Mi4zOS0uMTNhOC42Niw4LjY2LDAsMCwxLC40OC0xLjkzYzMuNjYtNy4yNCwzLjMxLTE0LjM1LS42MS0yMS4zNmwtOC40OC03Wk03OTAuNTMsMTU4YzEuNzMsNy4zMS0uMDcsMTIuNTMtNC40NiwxOEM3ODUuMTIsMTY5LjI0LDc4NS41MiwxNjMuNjksNzkwLjUzLDE1OFptNjUuMzQtNC4zYzYuNzIsNi40MSw4LDEyLjg3LDQsMjEuMTgtNS45MiwxMi40NS0xNS44NywyMC0yOS4wNywyMy43NC0xMS4zNCwzLjE4LTIyLDEuMDYtMzIuMzgtMy41Ni01LjIxLTIuMzEtOC02Ljg3LTEwLjEtMTEuODItLjQ3LTEuMTIuNDgtMywxLjEtNC4zOCwxLjgzLTQsNC4zMS03Ljg3LDUuNTgtMTIuMDguODEtMi42NS0uMTQtNS44Mi0uMjMtOC43Ni0uMDYtMS43NCwwLTMuNDguMDYtNS4yMmwxLjQyLjI2Yy0uMTEsMTEuODEsOS43NSwxNCwyMC42Niw5LjY3LDcuNTEtMyw5LjMtMTAuNTEsNC4wOC0xNS44MS0xLjQ0LTEuNDUtMy40LTIuMzktNS00QzgzMC40OCwxNDIuMzgsODQ0LjU4LDE0Mi45NCw4NTUuODcsMTUzLjcyWm0tNjQuNjQtMTcuNWMzLjQxLS4xNCw2LjgzLDAsMTAuMjQsMGwuNDIsMS43MS01LjU0LDQuOS44MSwxLjIxYzItMS4xOCw0LjA3LTIuMjIsNS45MS0zLjU4LDMuODEtMi44Miw3LjY1LTQuNDUsMTIuMjQtMS4zNmwtMjEuMjMsNy44NGMuMjctLjQ4LjczLTEuMy44My0xLjQ5YTUwLjU0LDUwLjU0LDAsMCwxLTUuNTItNS4yNEM3ODcuNzYsMTM4LjEyLDc4OC4zMywxMzYuMzQsNzkxLjIzLDEzNi4yMlpNNzY4LjE4LDE0MWMtMi40NCwyLjEyLTUuNzUsNC4xMS03Ljc3LDdhOC41OSw4LjU5LDAsMCwwLDEsMTEuMWMzLjY5LDMuOTQsOC42OCw0LDEzLjQ3LDIuNTMsNS40NC0xLjY4LDkuMi01LjIxLDkuNjctMTEuNDIsMy4zNSwyLjEzLDMuNzQsNCwxLjQzLDcuMzUtMy45Myw1LjY2LTQuNDIsMTIuNS00LjA5LDE5LjE2LjE3LDMuNTUtMS4yMyw1LjM4LTMuNzQsNy40LTExLjM0LDkuMTUtMjQuNDQsMTEuMjctMzguNDUsMTAuMjEtMy40OS0uMjctNC42My0xLjkyLTUtNS40MS0xLjYtMTYuOTIsNi42Ni0yOS42LDE3LjI0LTQxLjM2LDEuMjItMS4zNiwyLjU2LTIuNjEsMy44Mi0zLjkyQzc2MCwxMzkuMzIsNzYyLjgyLDEzOC44MSw3NjguMTgsMTQxWm0tMTMuODUtLjY1Yy0xMy42NywxNC44LTI0Ljg1LDMwLjMzLTIxLjg4LDUxLjgxLTIxLjMtMi4yMS0yNi43OC0yMC41Ny0xNy0zNC45MUM3MjQuNDMsMTQ0LDczOC40NiwxMzkuODEsNzU0LjMzLDE0MC4zNlptLTQ4LjI1LDcuMTdjNi0yLjI0LDEyLjItNCwxOC4zMy01Ljg5bC43LDEuNTRhNDcuMzMsNDcuMzMsMCwwLDAtMjAuNCwyMy43M2MtLjM0LTUtLjg4LTEwLjA2LS45LTE1LjA4QzcwMy44LDE1MC4zNSw3MDQuOTEsMTQ4LDcwNi4wOCwxNDcuNTNaTTg1MC4zMyw0NDUuNzljNC44LDMuODQsOS41LDcuOCwxNC4xOCwxMS43OCw0LDMuNCw0LjEsMy41OS44MSw3LjQ1LTcuNTMsOC44NC0xNC45LDE3Ljg2LTIyLjkyLDI2LjI0LTEzLDEzLjU5LTI0LjYyLDI4LjI5LTM1Ljg5LDQzLjMtNS43OSw3LjY5LTExLjcsMTUuMjktMTcuMzUsMjMuMDctMS43LDIuMzQtMi42OSw1LjE4LTQsNy44SDY5My45M2MtMS43Ni04LjkyLTcuNjUtMTUuNTctMTIuODgtMjIuNC0xNS44My0yMC43LTMyLjE2LTQxLTQ4LjA4LTYxLjY3LTQuMjQtNS41LTcuOC0xMS41My0xMS41Mi0xNy40Mi0xLjY4LTIuNjQtMS40Mi00Ljc3LDEuMTctNy4zN0M2MzguMzYsNDQwLjc1LDY1NSw0MjYsNjc0LDQxNC4yMmM2LjQ4LTQsMTIuNDYtOC44NCwxOC42MS0xMy4zOUExNC4xOSwxNC4xOSwwLDAsMSw3MDQuOTEsMzk4YTI2Ny45LDI2Ny45LDAsMCwwLDY5LjYxLDMuODUsMTguMzUsMTguMzUsMCwwLDEsOS40OSwxLjc3QzgwNy4yNCw0MTUuODcsODI5Ljc0LDQyOS4zNSw4NTAuMzMsNDQ1Ljc5Wk04MzUuNTUsMzg1LjFjLTMuODgsMS4xNi03LjcxLDIuNTEtMTEuNjQsMy40NC0yNy4yOCw2LjQ0LTU0LjgxLDEwLjk0LTgzLDkuMi0yNy42LTEuNzEtNTQuNDQtNy03OS4zMy0xOS41NS0yNC4xMS0xMi4xOC00NS4yMS0yOC01OC43NC01Mi4xMi0zLjQzLTYuMS01LjQ1LTEzLTguMjYtMTkuODgsNi41NS0uMTYsOC4xMy43OCwxMC4wNiw1LjI5LDMuNTUsOC4zMywxMi4zLDExLjg3LDIyLjU4LDguNjguMzQsNS42LDIuNDgsMTAuMzEsNy42MywxMyw2LjA2LDMuMTIsOS40MS0xLjc4LDEzLjk0LTUuNDUuMjEsMy4yOC40LDUuODQuNTIsOC40MS4zLDYuMTksNC4xMSwxMC4xMiw5LDEzczEwLDEuMDgsMTIuNzgtMy44M2E0OC4yMyw0OC4yMywwLDAsMCw0LjE3LTguNDdjMS4yOS0zLjkzLDMuNzctNC4xMSw3LTMuMTMsNi41MSwyLDEzLDQsMTkuNTQsNS45MSwxMy4yLDQsMjYuNDEsNy44MiwzOS41OSwxMS44Myw5LjYzLDIuOTMsMTkuMjEsNiwyOC44Miw5LDIuODEuODgsMy42OSwyLjE4LDIuMTEsNS4xNWEzMi40OSwzMi40OSwwLDAsMC0zLjMyLDkuMjhjLS45Miw1LjE1LDIuNTksOSw3LjgzLDkuMjUsNi42MS4yOSwxMS41MS0zLjczLDE2LjcyLTYuODVhNjguMjksNjguMjksMCwwLDAsNi41My01LjA1LDI3LjMxLDI3LjMxLDAsMCwxLDMuMTksMi44MmMzLjg0LDQuNjYsNyw1LjcxLDExLjg0LDIuODVhOC4zMSw4LjMxLDAsMCwxLDguNDctLjUzYzQuMTgsMiw4LjI1LDQuMjUsMTIuMzYsNi40Wm0yNy44NC05Yy0zLjgsMS44Ni03LjM0LjY3LTEwLjQxLTEuNjQsNC4yLTQuNzUsOC40LTkuMTcsMTIuMTYtMTMuOTRhMjQuNDcsMjQuNDcsMCwwLDAsMy41Ny03LjUyYy4zOC0xLjEzLS40LTIuNjMtLjY1LTRsLTEuNi0uMjRjLTEuOTIsMy4yMi00LDYuMzctNS43NCw5LjY2YTQxLDQxLDAsMCwxLTE4Ljc5LDE3Ljk1Yy0yLjgyLDEuMzUtNS44NiwzLTguODQuNDNzLTIuNzMtNS45MS0xLjI5LTkuMTZjMi4wNy00LjcsNC4zMS05LjMyLDYuNS0xNCwuODEtMS43MiwyLjczLTMuNTItLjE4LTUtMi41OC0xLjI5LTMuMzQsMS00LjU3LDIuNTMtNC44MSw2LjExLTkuNjMsMTIuMjMtMTQuNjksMTguMTNhMTYsMTYsMCwwLDEtNS42OCwzLjg4Yy0zLjMxLDEuNDYtNS41OS0uMTYtNC42Mi0zLjU5YTc2LjY2LDc2LjY2LDAsMCwxLDUuNDUtMTMuM2MyLjE2LTQuMyw1LTguMjcsNy4yOS0xMi40OS43Mi0xLjMxLjgtMywxLjIyLTQuNjUtMy4xMi0uNzYtNC43NS0uMzktNi4zMiwyLjE0YTE0NC4zNCwxNDQuMzQsMCwwLDEtMjkuMjksMzQuNDJjLTMuMjQsMi43My02LjgsNC42NS0xMS40OCw0LjI2LTIuMTctNS4zOS0uMzctMTAuMTYsMi4xLTE0LjcxLDUuNzMtMTAuNTksMTQtMTguOTQsMjMuNzktMjUuNzcsNi45NC00Ljg0LDE0LTkuNDEsMjEuMS0xNC4wOCwxLjA5LS43MiwyLjI2LTEuMzMsMy40LTItMy4wOS00LTUuNTMtMi43My03LjcxLTEuMjMtNy4zOCw1LjEtMTQuODIsMTAuMTItMjEuOTMsMTUuNTdhMTg2LDE4NiwwLDAsMC0xNC41MywxMi44NCw0LjY0LDQuNjQsMCwwLDEtNS4zLDEuMmMtMjAtNi4xNy00MC4wNS0xMi4yMi02MC4wOS0xOC4yOS0xMC42NC0zLjIyLTIxLjI4LTYuNDgtMzItOS42LTMuMTItLjkxLTQuMTItMi42NC0zLjg4LTUuODQuODgtMTEuNDEtLjc3LTIyLjU5LTMuODMtMzMuNTYtMS0zLjU4LTEuODYtNy41NC03LjQ3LTguNzEuODQsMy45MSwxLjQ4LDcuMzMsMi4zMSwxMC42OWExMTMuMjYsMTEzLjI2LDAsMCwxLDMuMTUsMzAuMjFjLS4yMyw5LjEzLTMuNDksMTcuMjQtNy42NCwyNS0yLjcxLDUuMDktOC40MSw0Ljc4LTEwLjY2LS42OEEyMS40OCwyMS40OCwwLDAsMSw2NTQuODIsMzMwYzEuNjctMTAsNC4xOC0xOS44LDYuMzMtMjkuNy41Mi0yLjM4LDMtNS4xNS0uNTgtNy0yLTEtNC4zOSwxLjY2LTUuMTcsNi0xLjYyLDktNS41NywxNy4wNS0xMC4wOSwyNC44NS0xLjM5LDIuNDEtMi44OSw1LjI1LTYuNCw0LjYxcy01LjA4LTMuNi01LjA3LTYuNjNjMC01LjU4Ljc2LTExLjE3LDEuMzUtMTYuNzQuMTUtMS40NiwxLjI1LTIuODcsMS4yMS00LjI4LDAtMS43NS0uNS00Ljc0LTEuMzYtNS0yLjQ2LS42NC00Ljc2LjI0LTUuNjUsMy4zOWExMjAuNDcsMTIwLjQ3LDAsMCwxLTQuNDYsMTMuMmMtMi4yLDUuMjgtNS41OCw1LjkxLTEwLjExLDIuMzMtNC42OS0zLjcxLTYuOTQtOC42My02LjI2LTE0LjQ2LjkzLTguMDksMy41OC0xNS40OSwxMC4zMi0yMC44NiwzLjY0LTIuOTEsNy4wNy02LjA3LDEwLjUyLTkuMmE5LjY0LDkuNjQsMCwwLDAsMS4zOS0yLjUzYy04LjU1LS4zMi0yNC4zNywxNi4xNS0yNy44OSwyOS4xN2wtOS42LTIuODJjLTEuMDctMTAuNzctLjMxLTIxLjMuNjctMzEuOSwyLjQ0LTI2LjQsMTcuODQtNDUuNzgsMzUtNjMuODMsMTcuNzQtMTguNjYsMzguMS0zNC4xMiw2MS45NS00NC41LDIuMDgtLjkxLDQuMjYtMS42LDctMi42LjU3LDcuMTYsMS4xNSwxMy43MSwxLjU5LDIwLjI3LDEuNjksMjUuMDksMy4yOSw1MC4xOCw1LDc1LjI2LDEuNTQsMjIuNTksMy4xOSw0NS4xNyw0Ljc1LDY3Ljc1LjE3LDIuNDktLjE0LDUsLjIxLDcuNDguMjYsMS44MywxLDQuOTEsMS45MSw1LjA1YTcuNjgsNy42OCwwLDAsMCw1LjY1LTEuODljMy41LTMuMjYsNi4zNy03LjIsOS44My0xMC41MywxOC40My0xNy43MSwzNi41Ny0zNS43NSw1NS41OC01Mi44MywxOS40LTE3LjQyLDM5Ljc3LTMzLjc3LDU5LjU3LTUwLjc2LDE1LjI2LTEzLjA5LDMwLjI1LTI2LjQ5LDQ1LjQ2LTM5LjY1LDYuNC01LjUzLDYuNjUtNS41OCwxMy4zMi0uMjksMTcuMzYsMTMuNzcsMjkuNywzMC45MywzNi4yMyw1Mi4zOSw2LDE5Ljg0LDUuNzgsMzkuNjUsMi4wNyw1OS43MS0yLjgyLDE1LjI5LTcsMzAuMS0xNC42NCw0My43OS04LDE0LjI1LTE4Ljc2LDI1LjkyLTMyLjY3LDM0LjMyQzg4Mi42OCwzNjcuMDksODcyLjkzLDM3MS40Myw4NjMuMzksMzc2LjA4WiIgY2xhc3M9ImNscy0yIi8+PHBhdGggZD0iTTg4My4yNCw1MzZjLS4xNC0uMDYtLjMtLjE4LS40My0uMTZoMGwuNDEuMTFaIiBjbGFzcz0iY2xzLTIiLz48cGF0aCBkPSJNNDE2LjQyLDU0OC42OXYwbC4yOS0uMTJaIiBjbGFzcz0iY2xzLTMiLz48cG9seWdvbiBwb2ludHM9IjQxMC44NSA1NTUuNzEgNDEwLjg1IDU1NS4zOSA0MTEuMTIgNTU1LjU4IDQxMS4xMSA1NTUuODcgNDEwLjg1IDU1NS43MSIgY2xhc3M9ImNscy0zIi8+PHBvbHlnb24gcG9pbnRzPSI4MzQuMjcgMjAxLjk4IDgzNC4wNyAyMDIuMTkgODMzLjc5IDIwMi4wOSA4MzMuOTkgMjAxLjc4IDgzNC4yNyAyMDEuOTgiIGNsYXNzPSJjbHMtMyIvPjxwb2x5Z29uIHBvaW50cz0iODY0LjMzIDE3OC41NCA4NjQuMzUgMTc4LjkgODY0LjAzIDE3OS4wOSA4NjMuOTQgMTc4LjY3IDg2NC4zMyAxNzguNTQiIGNsYXNzPSJjbHMtMyIvPjxwYXRoIGQ9Ik0xMTEuNDksMTMyLjk0bC0uMzUtLjI4Yy4xMy0uMDcuMjctLjIuNC0uMThzLjI0LjE2LjM2LjI1WiIgY2xhc3M9ImNscy0zIi8+PHBhdGggZD0iTTc0Ny4xNywyMTcuMThjLTIuNDctLjY5LTUuMzYtLjU3LTQuMDktNSwuNDctMS42NC0xLjY0LTQtMi41Ny02LjA4LDIuMjksMS41NSwzLjUsNC4zMSw3LDQuNTFDNzUwLjQxLDIxMC44MSw3NTAuMTksMjE0LjUzLDc0Ny4xNywyMTcuMThaIiBjbGFzcz0iY2xzLTEiLz48cGF0aCBkPSJNNDc0LjkzLDU0Ni4yYy04LjgxLDEuMTYtMTcuNDctMy4zLTI1LjQzLTkuNTctNC41MS0zLjU2LTUtOC45NC00LjY5LTE0LC41My03Ljk0LDQuMzItMTQuNzQsOS40NC0yMC43Niw0LjE4LTQuOTEsOS42OC03LjU1LDE1Ljg1LTlhMzAuNDQsMzAuNDQsMCwwLDEsMTcuNjMuNjljOS44MywzLjU3LDE2LjA2LDEwLjQsMjAuMjQsMjAuMTIsMy41NCw4LjIxLS44NywyMS4zLTguMzEsMjUuNjJBNDkuNDksNDkuNDksMCwwLDEsNDc0LjkzLDU0Ni4yWm0uNjQtMjYuMjVjLTguMzMtLjczLTE1LjU1LTEuNTUtMjIuNzktMS44NS0xLjIyLS4wNS0zLjI5LDEuOTMtMy42MywzLjMxYTEyLjE4LDEyLjE4LDAsMCwwLC4zNiw2LjcxYzMsOC4yOSwxMC4xNiwxMS40OSwxNy45LDEzLjYzYTMuODgsMy44OCwwLDAsMCwzLjMxLTEuOUM0NzIuNDMsNTMzLjcsNDczLjc5LDUyNy40NSw0NzUuNTcsNTIwWm0xNy4yLDF2LS4wOGMtMi4xNSwwLTQuMzEtLjEzLTYuNDYsMC01LjI2LjM5LTYuMTUsMS4yMS03LjMzLDYuMjYtLjYsMi41OC0xLjI0LDUuMTUtMS44NSw3LjczLTEuMzksNS44MywxLjEsOC43LDcsNy4xNWEzNy42OCwzNy42OCwwLDAsMCwxMi42LTUuNTVjMy0yLjIxLDUuMjgtNS45MSw2Ljg3LTkuNDEsMS43LTMuNzQtLjExLTUuODItNC4zMi02LjExQzQ5Ny4wOSw1MjAuODUsNDk0LjkzLDUyMSw0OTIuNzcsNTIxWm0xMS4xMi00LjEyYy0zLTkuNzctOC4xNi0xNi4yMy0xNy0xOS40LTEuNzgtLjYzLTMuODEtMS41Mi00LjUyLDEuMDYtMS42Myw1LjktMi42NiwxMS45MS0xLjYyLDE4LjM0Wm0tMjUuOTUtMTkuMjdjLTExLjM1LTEuNjUtMjIuMjcsNS41OS0yNC4yMiwxNS4zOCw2LjM0LDMuNSwxMy40NCwyLjU1LDIwLjI1LDMuMTUuNjguMDcsMi0xLjMzLDIuMTctMi4xOEM0NzYuODcsNTA4LjU4LDQ3Ny4zNSw1MDMuMiw0NzcuOTQsNDk3LjU4WiIgY2xhc3M9ImNscy0xIi8+PHBhdGggZD0iTTkyLjI1LDIxOS4xN2wtLjE5LjMzYS44LjgsMCwwLDEtLjA5LS4zNmMwLS4xMS4xMi0uMjIuMTgtLjMyWiIgY2xhc3M9ImNscy0xIi8+PHBhdGggZD0iTTM3NS41NSwyMjQuNGEyNS4yNiwyNS4yNiwwLDAsMCwuNCwzLjE2LDUuNDMsNS40MywwLDAsMCwxLDEuOWMuNDIuNTQsMS41MSwxLjE5LDEuNDIsMS4zOGE0LjgzLDQuODMsMCwwLDEtMS43NSwyLjE0Yy0uNDMuMjItMS40NS0uMzUtMi0uNzktMy0yLjM1LjE0LTUuMDctLjcyLTcuNThaIiBjbGFzcz0iY2xzLTYiLz48cGF0aCBkPSJNMzY4LDIzOC4yMmEzOC40LDM4LjQsMCwwLDEsMi41My00LjljLjE2LS4yMywxLjg1LjU5LDIuODMuOTJxLTEuNSwyLjU5LTMsNS4xOVoiIGNsYXNzPSJjbHMtNiIvPjxwYXRoIGQ9Ik00NDguMzcsMTAyLjE1Yy0xMi0yNi44LTMxLjI5LTQ3LjQxLTU0LjYtNjQuNTlDMzc5LjQ0LDI3LDM2NC4yLDE4LDM0Ny4zMiwxMmMtNy45NS0yLjgxLTE1Ljg4LTUuODEtMjQuNTUtNS4zN2EuMzkuMzksMCwwLDAtLjY0LjJjLTMuMjQsMC02LjY4LDEuODEtOS42Mi0xTDMwOSw1LjkybC0yNC40My0uNTMtMy4wOS4yYy04LjY2LDEtMTcuNDYsMS4zMi0yNS45NSwzLjExLTguODIsMS44Ni0xNy40Myw0LjktMjYsNy44Ny00LjYsMS42LTguODcsNC4xMy0xMy4zLDYuMjRoLS4yM2EyMCwyMCwwLDAsMC0yLjc4LDFjLTE4Ljg1LDEwLTM1LjQzLDIzLjI0LTUxLjIsMzcuNDQtOC43OSw3LjkyLTE3LDE2LjQ5LTI1LjQsMjQuODQtMy40OSwzLjQ2LTcuMDUsNi44OS0xMC4xNywxMC42N0MxMTcuMDYsMTA4LjIzLDEwOC4wNiwxMjAsMTAwLjY3LDEzMyw5OCwxMzcuNzQsOTgsMTM4LjE0LDEwMy4zNiwxNDBjMTcuODIsNi4zNSwzNS41OCwxMi44NCw1My4zOSwxOS4yLDcsMi41LDE0LDQuOCwyMS41LDcuMzQsMC02LjQzLjExLTEyLjE3LDAtMTcuOS0uMS00LTEuMDgtNy41OC02LjMzLTguMzYuODMtMi4wNywxLjQ3LTMuNjUsMi4xOC01LjQzbDUuNTEsM2MtLjI0LDEuNDctMSwzLS41NSwzLjkzLDMuMzEsNy4zNSwzLjU4LDE1LjA4LDMuMTgsMjIuOTItLjEzLDIuNDIuNTgsMy45NSwzLjI2LDQuNzIsNC43OSwxLjM3LDkuMzcsMy40NSwxNC4xNiw0Ljc5LDQuMTgsMS4xNyw4LjMxLDMuODYsMTIuOTQsMS40Nmw0LjMtMS4xMywyMy41Ny0yLjcxLDMuNDQtLjQ3YTQuMTUsNC4xNSwwLDAsMSwuOTQtMS4xLDQuMTUsNC4xNSwwLDAsMC0uOTQsMS4xYzMuMzIsMCw2LjYzLS4wOSw5Ljk0LDAsMywuMDUsNS43MS4wNiw4LjI1LTIuMzMsMS4xNC0xLjA4LDQuNzItMS4zOCw1Ljc0LS40NCwzLjY1LDMuMzIsNy43NywzLjE4LDEyLjA3LDNsLjI4LjIzLDMuNjktLjMzYzAsLjQ5LDAsMSwwLDEuNDZsLTMuNy0uMzYtNC45LjQ2YTEuNjksMS42OSwwLDAsMC0uNDktLjA5Yy01Ljc1Ljg3LTExLjUxLjU4LTE3LjI5LjYxLTExLjU1LjA4LTIzLjA5LDIuMjUtMzQuNjIsMy42NmE2OS4xMSw2OS4xMSwwLDAsMC03LjU2LDEuOTNjMi41LDEuMjMsMy43NSwyLDUuMTIsMi41MSwyOC45LDEwLjIzLDU3Ljg1LDIwLjMyLDg2LjY5LDMwLjY5LDYuOSwyLjQ4LDEyLjMzLDIuNDgsMTguNTEtMi43Myw3LjU5LTYuMzksMTYuNDEtMTEuNDEsMjUtMTYuNDUsNC40OC0yLjYyLDkuNjktNCwxNC41OC01Ljk1bDEuMzMsMS4zMmMtLjM4LjcxLS41NiwxLjc1LTEuMTUsMi4wOS03Ljg3LDQuNS0xNS45NCw4LjctMjMuNjgsMTMuNDEtNS4zMSwzLjI0LTEwLjIsNy4xNy0xNS4yNywxMC43OUwzMjUuMSwyMTZjLTEwLjIyLDEwLjgzLTE5LjUxLDIyLjE3LTIwLjg3LDM4LjE1LDIuNTctLjM4LDQuODUtMSw2LjQxLTIuNDQsNS44Ny01LjM2LDExLjczLTEwLjc4LDE3LjE1LTE2LjU4LDIuNDYtMi42NCw1LjczLTUuMzMsNC45MS05LjgxLDQuOTMtMS45MSw3LjY5LTUuNzEsOS4yNC0xMC41OGwuMDcsMGE0Ny43Miw0Ny43MiwwLDAsMCw0Ljc4LTQuODdjMi4xNy0yLjkzLDQuNjItMy4xNyw3Ljk0LTEuNzFhMTYuMjMsMTYuMjMsMCwwLDEtMSwyLjk1Yy00Ljg4LDguNDQtOS40NywxNy0xMi40NCwyNi4zNS0xLjQ3LDQuNjEtLjE2LDguMTcsMi4xNiwxMi42NSw5LjUtNy41NywxNi0xNi4zNiwxOS0yNy42NGwuMjUtLjM0LDYuMTMtLjY0YTQ0LjYyLDQ0LjYyLDAsMCwxLS4zNCw1LjU2LDEzLjUyLDEzLjUyLDAsMCwxLTEuNTEsMy4wNWMtLjksMS45Mi0yLjI5LDMuODEtMi40OSw1Ljgxcy4yOCw0Ljc4LDEuNTYsNS43NSw0LjQ4LjgyLDUuODgtLjE4YzMuNTktMi41NCw3LjY2LTUuMjcsOS42Ny04Ljk1LDMuMzgtNi4xNyw1LjI0LTEzLjE3LDcuOTQtMTkuNzQuNDUtMS4wOCwyLTEuNzMsMy0yLjU4LjcyLjkyLDIuMDksMS44OSwyLDIuNzVhOTEuNjYsOTEuNjYsMCwwLDEtMS40NCw5LjEzbC0zLjc1LDkuMjgtMy42Nyw2Ljc5YzcuNzcuNjgsMTEtNC4zMSwxNS03LjcyYTEuMjYsMS4yNiwwLDAsMCwuNzItLjU2YzYtNSwxMi4xMi05LjcyLDE3LjkxLTE0Ljg4LDE0LjkxLTEzLjMxLDI3LjI2LTI4LjcsMzQuMjctNDcuNTZhODUuODMsODUuODMsMCwwLDAsNS4xOC0yNS4xNEM0NTkuNTUsMTI4LDQ1NC4xLDExNSw0NDguMzcsMTAyLjE1Wk0xMTEuNDksMTMyLjk0bC0uMzUtLjI4Yy4xMy0uMDcuMjctLjIuNC0uMThzLjI0LjE2LjM2LjI1Wk0zNzAuMzcsMjM5LjQzLDM2OCwyMzguMjJhMzguNCwzOC40LDAsMCwxLDIuNTMtNC45Yy4xNi0uMjMsMS44NS41OSwyLjgzLjkyUTM3MS44OCwyMzYuODMsMzcwLjM3LDIzOS40M1ptNi4yOC02LjQ1Yy0uNDMuMjItMS40NS0uMzUtMi0uNzktMy0yLjM1LjE0LTUuMDctLjcyLTcuNThsMS42NC0uMjFhMjUuMjYsMjUuMjYsMCwwLDAsLjQsMy4xNiw1LjQzLDUuNDMsMCwwLDAsMSwxLjljLjQyLjU0LDEuNTEsMS4xOSwxLjQyLDEuMzhBNC44Myw0LjgzLDAsMCwxLDM3Ni42NSwyMzNaIiBjbGFzcz0iY2xzLTYiLz48cGF0aCBkPSJNMzU3LjU2LDI0NC41NGMtMy43NSwyLjk0LTYuOTUsNS41My0xMC4yNSw4LTMsMi4yMS04LjEyLDIuNTQtMTAuODcuNTctMy4xNC0yLjI2LTMuMy01LjQ0LTIuMzctOC45NC43Ni0yLjg4LDEuMjEtNS44MywxLjgyLTguOS0uODMuMS0xLjI3LDAtMS40NS4xOS0uNy42OC0xLjI3LDEuNDktMiwyLjE3LTcsNi43Ny0xNCwxMy42Ny0yMS4yMiwyMC4xOWE3LjcsNy43LDAsMCwxLTEwLjE1LjQxYy0zLTIuMjYtNC40Mi01LjY0LTMtOS4yOCwyLjUxLTYuNDMsNS4zOS0xMi43Miw4LjIxLTE5LDEuMTUtMi41OCwyLjU0LTUsNC03LjkzLTEwLTMuMzUtMTktNi4yNC0yNy45My05LjQtMjIuNjktOC00NS4yOS0xNi4zNC02OC0yNC4yLTkuMjQtMy4xOS0xOC41Ny04LjI3LTI4LjYxLTIuMTMtLjEzLjA4LS4zMy4wNS0uNDguMTJMMTcxLjkzLDE5MmM4Ljg0LS4zOCwxNi41NC0xLDI0LjI0LTFhNTEuMyw1MS4zLDAsMCwxLDMyLjc3LDExLjYxYzEzLjU2LDExLjA3LDE3Ljk0LDIyLjYxLDkuNTYsMzkuNDYtOC4yNSwxNi41OS0yMy40NiwyMy40My00MC4yMSwyNy4yLTE1LjUxLDMuNS0zMC40Ny4zOC00NC40My03LTkuNjktNS4xMi0xNy45LTExLjY0LTE4LjgxLTIzLjgzYTE5LjQ1LDE5LjQ1LDAsMCwwLTEtMy41Yy0yLjM5LjIyLTQuOC0uMTgtNi41OC43LTkuNjMsNC43OS0xOS44NSw1LjEzLTMwLjI0LDQuNThDODAsMjM5LjI4LDY1LjQzLDIzNCw1OC4xOSwyMTUuMzRjLTEuOCwzLjcxLTMuMzYsNi41Mi00LjU4LDkuNDgtOC4zMywyMC4yMy0xNi44OCw0MC4zOC0yNC43NSw2MC43OS00LjA1LDEwLjUxLTguMjQsMjEuMjktOS45LDMyLjMyLTMuNDIsMjIuODItNS4xOCw0NS45LTcuNjMsNjguODctLjkzLDguNzYtMS45MSwxNy41MS0yLjgzLDI2LjI3LS40Myw0LjE2LS43OCw4LjMzLTEuMjYsMTMuNTVhMjAuNDYsMjAuNDYsMCwwLDAsMi43Ni0xLjhjOS4wOS05LjY3LDE3LjgzLTE5LjY4LDI3LjMyLTI4LjkzYTE2OC4yNywxNjguMjcsMCwwLDEsMjMuMi0xOS40YzE5LjEyLTEyLjg1LDQwLjM1LTIxLjgzLDYxLjEtMzEuNjUsMTYuODEtOCwzNC0xNS4yNSw1MC4zOC0yMy45NSwxNi4xOC04LjU2LDMxLjEyLTE5LjA5LDQzLjUyLTMyLjkyLDEyLjA4LTEzLjQ4LDIyLjUtMjgsMjkuNzYtNDQuNjMsMS0yLjM0LDEuODQtNC44NSw0LjUzLTQuMDZhNi4yOSw2LjI5LDAsMCwxLDMuNjQsNC41OWMuMjgsNi4wOC43NiwxMi4zOS0uNTIsMTguMjQtMy4zOCwxNS40LTcuNDgsMzAuNjQtMTEuNTksNDUuODYtMy42OCwxMy42Mi04LjI5LDI3LTExLjUyLDQwLjczLTMuODgsMTYuNDctNi43NSwzMy4xOS0xMCw0OS44MS0uMTYuNzkuMjIsMS42OS41NSwzLjgzLDQuNjEtNS40Niw4LjcxLTkuODEsMTIuMjItMTQuNTgsMTEtMTUsMjEuOC0zMC4xNSwzMi42NS00NS4yNiwyLjMxLTMuMjEsNC41My02LjUsNi43OS05Ljc1LDUuOS03LjUsMTEuOTItMTQuOTIsMTcuNjUtMjIuNTYsMi40NC0zLjI2LDQuMjgtNyw2LjM5LTEwLjQ5LS4xOS0uMTktLjM5LS4zNy0uNTktLjU1aDBjLjIuMTguNC4zNi41OS41NSwzLjIxLTQuMzgsNi4yNC04LjkxLDkuNjctMTMuMTEsMi4yNS0yLjc0LDQuNzMtNS42NCw3Ljc0LTcuMywzLjg3LTIuMTIsOC4zNy0zLjEsMTIuNjItNC41MUExNzYuNDMsMTc2LjQzLDAsMCwwLDM3MSwyNTIuMzljMS0uNjgsMS4yNy0yLjM1LDIuMjMtNC4yN0MzNjYuNzYsMjQ4LjI0LDM2MS4yOCwyNDkuMTIsMzU3LjU2LDI0NC41NFoiIGNsYXNzPSJjbHMtNiIvPjxwYXRoIGQ9Ik0yOS43NiwxNTAuNTljMTQuMzMtMi42NSwyNC44NC0xMS4zLDM0LTIyLDIuNDQtMi44Niw0LjY5LTUuODcsNy04Ljc5LjQyLS41Mi44Ni0xLjM3LDEuMzMtMS40MSwxLjY0LS4xMiwzLjU3LS40MSw0Ljg1LjMyLjY0LjM2LjcsMy4xMiwwLDQuMTktMi4yMywzLjYxLTQuOSw2Ljk0LTcuNDEsMTAuMzgtMy4xNCw0LjU5LTYuMzcsOS4xMi05LjM0LDEzLjgyLS41NC44NC0uNDUsMi44OS4xOCwzLjQ0YTMuNjUsMy42NSwwLDAsMCwzLjU0LjIxYzMuMDgtMi42LDUuODgtNS41NCw4Ljc3LTguMzYsMS4zOC0xLjEyLDMtMiw0LjA2LTMuNGE4OC45MSw4OC45MSwwLDAsMCw2LTljMS43NS0zLDQtNC42NCw3LjU5LTMuOTJhLjQxLjQxLDAsMCwwLC4zNi4zM2MtLjQ5LDIuMjItLjU0LDQuNjYtMS41NSw2LjYyLTQsNy42NS04LjI4LDE1LjEyLTEyLjMyLDIyLjc0YTMyLjc5LDMyLjc5LDAsMCwwLTEuNzgsNS43MmwxLjc0Ljk1YTMxLjg1LDMxLjg1LDAsMCwwLDMuNDYtNC42NWM4LjMyLTE2LjY4LDE3LjQxLTMyLjg0LDI5Ljc2LTQ3LDMtMy40NSw1LjgzLTcuMDcsOC43My0xMC42MmExNy44NSwxNy44NSwwLDAsMC03LjU0LDFjLTExLjI4LDMuOTItMjIuNTMsOC0zMy44MSwxMS44OS0xNC43OCw1LjE0LTI5LDExLjI4LTQwLjk1LDIxLjgtNC45Myw0LjM1LTkuNzgsOC43OC0xMy4yNCwxNS43M0MyNS44NCwxNTAuNjQsMjcuODYsMTUxLDI5Ljc2LDE1MC41OVoiIGNsYXNzPSJjbHMtNiIvPjxwYXRoIGQ9Ik05MS4xMiwxNDkuMDZjLTMuMTMsNi02LjQ4LDExLjkyLTkuNiwxNy45NC0uNzEsMS4zNi0uODgsMy0xLjYsNS42LDMtLjUxLDUuMS0uNjUsNy0xLjIxLDguNjUtMi41LDE3LjMzLTQuODIsMjYuNDYtNCw0Ljk1LjQyLDkuODksMS4wOCwxNC44MywxLjY3LDkuMjIsMS4xMSwxOCwzLjkzLDI1LjEsOS44MmEzMC4yOCwzMC4yOCwwLDAsMCwxMy4wOCw2LjM0YzIuNTEuNiw0LjE3LjM3LDUuNDItMiwuODYtMS42MSwxLjg1LTMuMTQsMi44MS00LjY5LDEuNi0yLjYuNDItNC0yLTQuOTItMTAuNDUtMy43NS0yMC44OS03LjU0LTMxLjM3LTExLjIxLTE0Ljc0LTUuMTYtMjkuNTUtMTAuMDktNDQuMjEtMTUuNDVDOTMuOTIsMTQ1LjgxLDkyLjUyLDE0Ni4zNyw5MS4xMiwxNDkuMDZaIiBjbGFzcz0iY2xzLTYiLz48cGF0aCBkPSJNMTc3LDE4NS40OWwxMy4zNS00LjRDMTgwLjg0LDE3NSwxNzguNzIsMTc1Ljc1LDE3NywxODUuNDlaIiBjbGFzcz0iY2xzLTYiLz48cGF0aCBkPSJNNDkyLjc3LDUyMWMyLjE2LDAsNC4zMi0uMTIsNi40NywwLDQuMjEuMjksNiwyLjM3LDQuMzIsNi4xMS0xLjU5LDMuNS0zLjg2LDcuMi02Ljg3LDkuNDFhMzcuNjgsMzcuNjgsMCwwLDEtMTIuNiw1LjU1Yy01Ljg2LDEuNTUtOC4zNS0xLjMyLTctNy4xNS42MS0yLjU4LDEuMjUtNS4xNSwxLjg1LTcuNzMsMS4xOC01LDIuMDctNS44Nyw3LjMzLTYuMjYsMi4xNS0uMTYsNC4zMSwwLDYuNDYsMFoiIGNsYXNzPSJjbHMtNyIvPjxwYXRoIGQ9Ik00NzcuOTQsNDk3LjU4Yy0uNTksNS42Mi0xLjA3LDExLTEuOCwxNi4zNS0uMTIuODUtMS40OSwyLjI1LTIuMTcsMi4xOC02LjgxLS42LTEzLjkxLjM1LTIwLjI1LTMuMTVDNDU1LjY3LDUwMy4xNyw0NjYuNTksNDk1LjkzLDQ3Ny45NCw0OTcuNThaIiBjbGFzcz0iY2xzLTciLz48L2c+PC9nPjwvc3ZnPg==;" vertex="1" parent="1">
          <mxGeometry x="190" y="10" width="420" height="250" as="geometry" />
        </mxCell>
        <mxCell id="7upIJ7KYZOERCpWqS2DW-2" value="GA GA GA&lt;br&gt;" style="whiteSpace=wrap;html=1;shape=mxgraph.basic.cloud_callout;flipV=0;flipH=1;verticalAlign=middle;horizontal=1;spacingBottom=16;" vertex="1" parent="1">
          <mxGeometry x="60" y="20" width="120" height="90" as="geometry" />
        </mxCell>
        <mxCell id="7upIJ7KYZOERCpWqS2DW-3" value="MEU MEU" style="whiteSpace=wrap;html=1;shape=mxgraph.basic.cloud_callout;flipV=0;flipH=0;verticalAlign=middle;horizontal=1;spacingBottom=16;" vertex="1" parent="1">
          <mxGeometry x="620" y="30" width="120" height="90" as="geometry" />
        </mxCell>
      </root>
    </mxGraphModel>
  </diagram>
</mxfile>
